G04 #@! TF.GenerationSoftware,KiCad,Pcbnew,5.1.0*
G04 #@! TF.CreationDate,2019-05-19T21:56:43+02:00*
G04 #@! TF.ProjectId,beeper,62656570-6572-42e6-9b69-6361645f7063,rev?*
G04 #@! TF.SameCoordinates,Original*
G04 #@! TF.FileFunction,Legend,Bot*
G04 #@! TF.FilePolarity,Positive*
%FSLAX46Y46*%
G04 Gerber Fmt 4.6, Leading zero omitted, Abs format (unit mm)*
G04 Created by KiCad (PCBNEW 5.1.0) date 2019-05-19 21:56:43*
%MOMM*%
%LPD*%
G04 APERTURE LIST*
%ADD10C,0.125000*%
%ADD11C,0.150000*%
%ADD12C,0.120000*%
G04 APERTURE END LIST*
D10*
X137326190Y-104214285D02*
X136826190Y-104214285D01*
X137183333Y-104380952D01*
X136826190Y-104547619D01*
X137326190Y-104547619D01*
X137326190Y-104785714D02*
X136826190Y-104785714D01*
X137302380Y-105000000D02*
X137326190Y-105071428D01*
X137326190Y-105190476D01*
X137302380Y-105238095D01*
X137278571Y-105261904D01*
X137230952Y-105285714D01*
X137183333Y-105285714D01*
X137135714Y-105261904D01*
X137111904Y-105238095D01*
X137088095Y-105190476D01*
X137064285Y-105095238D01*
X137040476Y-105047619D01*
X137016666Y-105023809D01*
X136969047Y-105000000D01*
X136921428Y-105000000D01*
X136873809Y-105023809D01*
X136850000Y-105047619D01*
X136826190Y-105095238D01*
X136826190Y-105214285D01*
X136850000Y-105285714D01*
X136826190Y-105595238D02*
X136826190Y-105690476D01*
X136850000Y-105738095D01*
X136897619Y-105785714D01*
X136992857Y-105809523D01*
X137159523Y-105809523D01*
X137254761Y-105785714D01*
X137302380Y-105738095D01*
X137326190Y-105690476D01*
X137326190Y-105595238D01*
X137302380Y-105547619D01*
X137254761Y-105500000D01*
X137159523Y-105476190D01*
X136992857Y-105476190D01*
X136897619Y-105500000D01*
X136850000Y-105547619D01*
X136826190Y-105595238D01*
X137326190Y-106314285D02*
X136826190Y-106314285D01*
X137183333Y-106480952D01*
X136826190Y-106647619D01*
X137326190Y-106647619D01*
X136826190Y-106980952D02*
X136826190Y-107076190D01*
X136850000Y-107123809D01*
X136897619Y-107171428D01*
X136992857Y-107195238D01*
X137159523Y-107195238D01*
X137254761Y-107171428D01*
X137302380Y-107123809D01*
X137326190Y-107076190D01*
X137326190Y-106980952D01*
X137302380Y-106933333D01*
X137254761Y-106885714D01*
X137159523Y-106861904D01*
X136992857Y-106861904D01*
X136897619Y-106885714D01*
X136850000Y-106933333D01*
X136826190Y-106980952D01*
X137302380Y-107385714D02*
X137326190Y-107457142D01*
X137326190Y-107576190D01*
X137302380Y-107623809D01*
X137278571Y-107647619D01*
X137230952Y-107671428D01*
X137183333Y-107671428D01*
X137135714Y-107647619D01*
X137111904Y-107623809D01*
X137088095Y-107576190D01*
X137064285Y-107480952D01*
X137040476Y-107433333D01*
X137016666Y-107409523D01*
X136969047Y-107385714D01*
X136921428Y-107385714D01*
X136873809Y-107409523D01*
X136850000Y-107433333D01*
X136826190Y-107480952D01*
X136826190Y-107600000D01*
X136850000Y-107671428D01*
X137326190Y-107885714D02*
X136826190Y-107885714D01*
X137202380Y-102257142D02*
X137226190Y-102328571D01*
X137226190Y-102447619D01*
X137202380Y-102495238D01*
X137178571Y-102519047D01*
X137130952Y-102542857D01*
X137083333Y-102542857D01*
X137035714Y-102519047D01*
X137011904Y-102495238D01*
X136988095Y-102447619D01*
X136964285Y-102352380D01*
X136940476Y-102304761D01*
X136916666Y-102280952D01*
X136869047Y-102257142D01*
X136821428Y-102257142D01*
X136773809Y-102280952D01*
X136750000Y-102304761D01*
X136726190Y-102352380D01*
X136726190Y-102471428D01*
X136750000Y-102542857D01*
X137178571Y-103042857D02*
X137202380Y-103019047D01*
X137226190Y-102947619D01*
X137226190Y-102900000D01*
X137202380Y-102828571D01*
X137154761Y-102780952D01*
X137107142Y-102757142D01*
X137011904Y-102733333D01*
X136940476Y-102733333D01*
X136845238Y-102757142D01*
X136797619Y-102780952D01*
X136750000Y-102828571D01*
X136726190Y-102900000D01*
X136726190Y-102947619D01*
X136750000Y-103019047D01*
X136773809Y-103042857D01*
X137226190Y-103257142D02*
X136726190Y-103257142D01*
X137226190Y-103542857D02*
X136940476Y-103328571D01*
X136726190Y-103542857D02*
X137011904Y-103257142D01*
X137226190Y-100526190D02*
X136988095Y-100359523D01*
X137226190Y-100240476D02*
X136726190Y-100240476D01*
X136726190Y-100430952D01*
X136750000Y-100478571D01*
X136773809Y-100502380D01*
X136821428Y-100526190D01*
X136892857Y-100526190D01*
X136940476Y-100502380D01*
X136964285Y-100478571D01*
X136988095Y-100430952D01*
X136988095Y-100240476D01*
X137202380Y-100716666D02*
X137226190Y-100788095D01*
X137226190Y-100907142D01*
X137202380Y-100954761D01*
X137178571Y-100978571D01*
X137130952Y-101002380D01*
X137083333Y-101002380D01*
X137035714Y-100978571D01*
X137011904Y-100954761D01*
X136988095Y-100907142D01*
X136964285Y-100811904D01*
X136940476Y-100764285D01*
X136916666Y-100740476D01*
X136869047Y-100716666D01*
X136821428Y-100716666D01*
X136773809Y-100740476D01*
X136750000Y-100764285D01*
X136726190Y-100811904D01*
X136726190Y-100930952D01*
X136750000Y-101002380D01*
X136726190Y-101145238D02*
X136726190Y-101430952D01*
X137226190Y-101288095D02*
X136726190Y-101288095D01*
X158719047Y-107400000D02*
X158671428Y-107423809D01*
X158600000Y-107423809D01*
X158528571Y-107400000D01*
X158480952Y-107352380D01*
X158457142Y-107304761D01*
X158433333Y-107209523D01*
X158433333Y-107138095D01*
X158457142Y-107042857D01*
X158480952Y-106995238D01*
X158528571Y-106947619D01*
X158600000Y-106923809D01*
X158647619Y-106923809D01*
X158719047Y-106947619D01*
X158742857Y-106971428D01*
X158742857Y-107138095D01*
X158647619Y-107138095D01*
X158957142Y-106923809D02*
X158957142Y-107423809D01*
X159242857Y-106923809D01*
X159242857Y-107423809D01*
X159480952Y-106923809D02*
X159480952Y-107423809D01*
X159600000Y-107423809D01*
X159671428Y-107400000D01*
X159719047Y-107352380D01*
X159742857Y-107304761D01*
X159766666Y-107209523D01*
X159766666Y-107138095D01*
X159742857Y-107042857D01*
X159719047Y-106995238D01*
X159671428Y-106947619D01*
X159600000Y-106923809D01*
X159480952Y-106923809D01*
X153214285Y-106564285D02*
X153238095Y-106635714D01*
X153261904Y-106659523D01*
X153309523Y-106683333D01*
X153380952Y-106683333D01*
X153428571Y-106659523D01*
X153452380Y-106635714D01*
X153476190Y-106588095D01*
X153476190Y-106397619D01*
X152976190Y-106397619D01*
X152976190Y-106564285D01*
X153000000Y-106611904D01*
X153023809Y-106635714D01*
X153071428Y-106659523D01*
X153119047Y-106659523D01*
X153166666Y-106635714D01*
X153190476Y-106611904D01*
X153214285Y-106564285D01*
X153214285Y-106397619D01*
X153476190Y-107111904D02*
X153214285Y-107111904D01*
X153166666Y-107088095D01*
X153142857Y-107040476D01*
X153142857Y-106945238D01*
X153166666Y-106897619D01*
X153452380Y-107111904D02*
X153476190Y-107064285D01*
X153476190Y-106945238D01*
X153452380Y-106897619D01*
X153404761Y-106873809D01*
X153357142Y-106873809D01*
X153309523Y-106897619D01*
X153285714Y-106945238D01*
X153285714Y-107064285D01*
X153261904Y-107111904D01*
X153142857Y-107278571D02*
X153142857Y-107469047D01*
X152976190Y-107350000D02*
X153404761Y-107350000D01*
X153452380Y-107373809D01*
X153476190Y-107421428D01*
X153476190Y-107469047D01*
X153142857Y-107564285D02*
X153142857Y-107754761D01*
X152976190Y-107635714D02*
X153404761Y-107635714D01*
X153452380Y-107659523D01*
X153476190Y-107707142D01*
X153476190Y-107754761D01*
X153285714Y-107921428D02*
X153285714Y-108302380D01*
X153476190Y-108111904D02*
X153095238Y-108111904D01*
X162764285Y-104642857D02*
X162764285Y-104261904D01*
X162573809Y-104452380D02*
X162954761Y-104452380D01*
X163073809Y-103785714D02*
X163073809Y-104023809D01*
X162835714Y-104047619D01*
X162859523Y-104023809D01*
X162883333Y-103976190D01*
X162883333Y-103857142D01*
X162859523Y-103809523D01*
X162835714Y-103785714D01*
X162788095Y-103761904D01*
X162669047Y-103761904D01*
X162621428Y-103785714D01*
X162597619Y-103809523D01*
X162573809Y-103857142D01*
X162573809Y-103976190D01*
X162597619Y-104023809D01*
X162621428Y-104047619D01*
X163073809Y-103619047D02*
X162573809Y-103452380D01*
X163073809Y-103285714D01*
X162735714Y-101719047D02*
X162711904Y-101647619D01*
X162688095Y-101623809D01*
X162640476Y-101600000D01*
X162569047Y-101600000D01*
X162521428Y-101623809D01*
X162497619Y-101647619D01*
X162473809Y-101695238D01*
X162473809Y-101885714D01*
X162973809Y-101885714D01*
X162973809Y-101719047D01*
X162950000Y-101671428D01*
X162926190Y-101647619D01*
X162878571Y-101623809D01*
X162830952Y-101623809D01*
X162783333Y-101647619D01*
X162759523Y-101671428D01*
X162735714Y-101719047D01*
X162735714Y-101885714D01*
X162497619Y-101195238D02*
X162473809Y-101242857D01*
X162473809Y-101338095D01*
X162497619Y-101385714D01*
X162545238Y-101409523D01*
X162735714Y-101409523D01*
X162783333Y-101385714D01*
X162807142Y-101338095D01*
X162807142Y-101242857D01*
X162783333Y-101195238D01*
X162735714Y-101171428D01*
X162688095Y-101171428D01*
X162640476Y-101409523D01*
X162497619Y-100766666D02*
X162473809Y-100814285D01*
X162473809Y-100909523D01*
X162497619Y-100957142D01*
X162545238Y-100980952D01*
X162735714Y-100980952D01*
X162783333Y-100957142D01*
X162807142Y-100909523D01*
X162807142Y-100814285D01*
X162783333Y-100766666D01*
X162735714Y-100742857D01*
X162688095Y-100742857D01*
X162640476Y-100980952D01*
X162807142Y-100528571D02*
X162307142Y-100528571D01*
X162783333Y-100528571D02*
X162807142Y-100480952D01*
X162807142Y-100385714D01*
X162783333Y-100338095D01*
X162759523Y-100314285D01*
X162711904Y-100290476D01*
X162569047Y-100290476D01*
X162521428Y-100314285D01*
X162497619Y-100338095D01*
X162473809Y-100385714D01*
X162473809Y-100480952D01*
X162497619Y-100528571D01*
X163050000Y-106680952D02*
X163073809Y-106728571D01*
X163073809Y-106800000D01*
X163050000Y-106871428D01*
X163002380Y-106919047D01*
X162954761Y-106942857D01*
X162859523Y-106966666D01*
X162788095Y-106966666D01*
X162692857Y-106942857D01*
X162645238Y-106919047D01*
X162597619Y-106871428D01*
X162573809Y-106800000D01*
X162573809Y-106752380D01*
X162597619Y-106680952D01*
X162621428Y-106657142D01*
X162788095Y-106657142D01*
X162788095Y-106752380D01*
X162573809Y-106442857D02*
X163073809Y-106442857D01*
X162573809Y-106157142D01*
X163073809Y-106157142D01*
X162573809Y-105919047D02*
X163073809Y-105919047D01*
X163073809Y-105800000D01*
X163050000Y-105728571D01*
X163002380Y-105680952D01*
X162954761Y-105657142D01*
X162859523Y-105633333D01*
X162788095Y-105633333D01*
X162692857Y-105657142D01*
X162645238Y-105680952D01*
X162597619Y-105728571D01*
X162573809Y-105800000D01*
X162573809Y-105919047D01*
D11*
X136500000Y-108700000D02*
X136500000Y-94500000D01*
X163300000Y-108700000D02*
X136500000Y-108700000D01*
X163250000Y-94500000D02*
X163300000Y-108700000D01*
X136500000Y-94500000D02*
X163250000Y-94500000D01*
D12*
X154200000Y-98940000D02*
X156000000Y-98940000D01*
X156000000Y-102160000D02*
X153550000Y-102160000D01*
X143110000Y-105125279D02*
X143110000Y-104799721D01*
X142090000Y-105125279D02*
X142090000Y-104799721D01*
X155096078Y-98460000D02*
X154578922Y-98460000D01*
X155096078Y-97040000D02*
X154578922Y-97040000D01*
X152910000Y-104924721D02*
X152910000Y-105250279D01*
X151890000Y-104924721D02*
X151890000Y-105250279D01*
X153390000Y-103778922D02*
X153390000Y-104296078D01*
X154810000Y-103778922D02*
X154810000Y-104296078D01*
X143720000Y-104340000D02*
X144650000Y-104340000D01*
X146880000Y-104340000D02*
X145950000Y-104340000D01*
X146880000Y-104340000D02*
X146880000Y-106500000D01*
X143720000Y-104340000D02*
X143720000Y-105800000D01*
X157021078Y-104490000D02*
X156503922Y-104490000D01*
X157021078Y-105910000D02*
X156503922Y-105910000D01*
X147610000Y-96228922D02*
X147610000Y-96746078D01*
X146190000Y-96228922D02*
X146190000Y-96746078D01*
X145410000Y-100121078D02*
X145410000Y-99603922D01*
X143990000Y-100121078D02*
X143990000Y-99603922D01*
X145410000Y-96696078D02*
X145410000Y-96178922D01*
X143990000Y-96696078D02*
X143990000Y-96178922D01*
X143703922Y-101790000D02*
X144221078Y-101790000D01*
X143703922Y-103210000D02*
X144221078Y-103210000D01*
X154278922Y-95090000D02*
X154796078Y-95090000D01*
X154278922Y-96510000D02*
X154796078Y-96510000D01*
X150196078Y-106690000D02*
X149678922Y-106690000D01*
X150196078Y-108110000D02*
X149678922Y-108110000D01*
X157021078Y-104010000D02*
X156503922Y-104010000D01*
X157021078Y-102590000D02*
X156503922Y-102590000D01*
X146771078Y-107090000D02*
X146253922Y-107090000D01*
X146771078Y-108510000D02*
X146253922Y-108510000D01*
D11*
X147325000Y-103510000D02*
X147325000Y-103460000D01*
X151475000Y-103510000D02*
X151475000Y-103365000D01*
X151475000Y-98360000D02*
X151475000Y-98505000D01*
X147325000Y-98360000D02*
X147325000Y-98505000D01*
X147325000Y-103510000D02*
X151475000Y-103510000D01*
X147325000Y-98360000D02*
X151475000Y-98360000D01*
X147325000Y-103460000D02*
X145925000Y-103460000D01*
D12*
X139200000Y-102900000D02*
G75*
G03X139200000Y-102900000I-700000J0D01*
G01*
X139200000Y-105000000D02*
G75*
G03X139200000Y-105000000I-700000J0D01*
G01*
X139200000Y-100800000D02*
G75*
G03X139200000Y-100800000I-700000J0D01*
G01*
X139200000Y-107100000D02*
G75*
G03X139200000Y-107100000I-700000J0D01*
G01*
X158160000Y-108560000D02*
X154040000Y-108560000D01*
X158160000Y-108500000D02*
X158160000Y-108560000D01*
X154040000Y-106440000D02*
X154040000Y-108560000D01*
X158160000Y-108500000D02*
X156100000Y-108500000D01*
X156100000Y-108500000D02*
X156100000Y-106440000D01*
X156100000Y-106440000D02*
X154040000Y-106440000D01*
X158160000Y-107500000D02*
X158160000Y-106440000D01*
X158160000Y-106440000D02*
X157100000Y-106440000D01*
D11*
X158761904Y-99752380D02*
X158761904Y-100561904D01*
X158714285Y-100657142D01*
X158666666Y-100704761D01*
X158571428Y-100752380D01*
X158380952Y-100752380D01*
X158285714Y-100704761D01*
X158238095Y-100657142D01*
X158190476Y-100561904D01*
X158190476Y-99752380D01*
X157761904Y-99847619D02*
X157714285Y-99800000D01*
X157619047Y-99752380D01*
X157380952Y-99752380D01*
X157285714Y-99800000D01*
X157238095Y-99847619D01*
X157190476Y-99942857D01*
X157190476Y-100038095D01*
X157238095Y-100180952D01*
X157809523Y-100752380D01*
X157190476Y-100752380D01*
X141657142Y-105033333D02*
X141704761Y-104985714D01*
X141752380Y-104842857D01*
X141752380Y-104747619D01*
X141704761Y-104604761D01*
X141609523Y-104509523D01*
X141514285Y-104461904D01*
X141323809Y-104414285D01*
X141180952Y-104414285D01*
X140990476Y-104461904D01*
X140895238Y-104509523D01*
X140800000Y-104604761D01*
X140752380Y-104747619D01*
X140752380Y-104842857D01*
X140800000Y-104985714D01*
X140847619Y-105033333D01*
X140752380Y-105366666D02*
X140752380Y-105985714D01*
X141133333Y-105652380D01*
X141133333Y-105795238D01*
X141180952Y-105890476D01*
X141228571Y-105938095D01*
X141323809Y-105985714D01*
X141561904Y-105985714D01*
X141657142Y-105938095D01*
X141704761Y-105890476D01*
X141752380Y-105795238D01*
X141752380Y-105509523D01*
X141704761Y-105414285D01*
X141657142Y-105366666D01*
X157266666Y-98207142D02*
X157314285Y-98254761D01*
X157457142Y-98302380D01*
X157552380Y-98302380D01*
X157695238Y-98254761D01*
X157790476Y-98159523D01*
X157838095Y-98064285D01*
X157885714Y-97873809D01*
X157885714Y-97730952D01*
X157838095Y-97540476D01*
X157790476Y-97445238D01*
X157695238Y-97350000D01*
X157552380Y-97302380D01*
X157457142Y-97302380D01*
X157314285Y-97350000D01*
X157266666Y-97397619D01*
X156314285Y-98302380D02*
X156885714Y-98302380D01*
X156600000Y-98302380D02*
X156600000Y-97302380D01*
X156695238Y-97445238D01*
X156790476Y-97540476D01*
X156885714Y-97588095D01*
X151327142Y-104920833D02*
X151374761Y-104873214D01*
X151422380Y-104730357D01*
X151422380Y-104635119D01*
X151374761Y-104492261D01*
X151279523Y-104397023D01*
X151184285Y-104349404D01*
X150993809Y-104301785D01*
X150850952Y-104301785D01*
X150660476Y-104349404D01*
X150565238Y-104397023D01*
X150470000Y-104492261D01*
X150422380Y-104635119D01*
X150422380Y-104730357D01*
X150470000Y-104873214D01*
X150517619Y-104920833D01*
X150517619Y-105301785D02*
X150470000Y-105349404D01*
X150422380Y-105444642D01*
X150422380Y-105682738D01*
X150470000Y-105777976D01*
X150517619Y-105825595D01*
X150612857Y-105873214D01*
X150708095Y-105873214D01*
X150850952Y-105825595D01*
X151422380Y-105254166D01*
X151422380Y-105873214D01*
D10*
X154183333Y-106228571D02*
X154207142Y-106252380D01*
X154278571Y-106276190D01*
X154326190Y-106276190D01*
X154397619Y-106252380D01*
X154445238Y-106204761D01*
X154469047Y-106157142D01*
X154492857Y-106061904D01*
X154492857Y-105990476D01*
X154469047Y-105895238D01*
X154445238Y-105847619D01*
X154397619Y-105800000D01*
X154326190Y-105776190D01*
X154278571Y-105776190D01*
X154207142Y-105800000D01*
X154183333Y-105823809D01*
X153754761Y-105942857D02*
X153754761Y-106276190D01*
X153873809Y-105752380D02*
X153992857Y-106109523D01*
X153683333Y-106109523D01*
D11*
X142795238Y-107647619D02*
X142890476Y-107600000D01*
X142985714Y-107504761D01*
X143128571Y-107361904D01*
X143223809Y-107314285D01*
X143319047Y-107314285D01*
X143271428Y-107552380D02*
X143366666Y-107504761D01*
X143461904Y-107409523D01*
X143509523Y-107219047D01*
X143509523Y-106885714D01*
X143461904Y-106695238D01*
X143366666Y-106600000D01*
X143271428Y-106552380D01*
X143080952Y-106552380D01*
X142985714Y-106600000D01*
X142890476Y-106695238D01*
X142842857Y-106885714D01*
X142842857Y-107219047D01*
X142890476Y-107409523D01*
X142985714Y-107504761D01*
X143080952Y-107552380D01*
X143271428Y-107552380D01*
X142461904Y-106647619D02*
X142414285Y-106600000D01*
X142319047Y-106552380D01*
X142080952Y-106552380D01*
X141985714Y-106600000D01*
X141938095Y-106647619D01*
X141890476Y-106742857D01*
X141890476Y-106838095D01*
X141938095Y-106980952D01*
X142509523Y-107552380D01*
X141890476Y-107552380D01*
X159166666Y-105852380D02*
X159500000Y-105376190D01*
X159738095Y-105852380D02*
X159738095Y-104852380D01*
X159357142Y-104852380D01*
X159261904Y-104900000D01*
X159214285Y-104947619D01*
X159166666Y-105042857D01*
X159166666Y-105185714D01*
X159214285Y-105280952D01*
X159261904Y-105328571D01*
X159357142Y-105376190D01*
X159738095Y-105376190D01*
X158214285Y-105852380D02*
X158785714Y-105852380D01*
X158500000Y-105852380D02*
X158500000Y-104852380D01*
X158595238Y-104995238D01*
X158690476Y-105090476D01*
X158785714Y-105138095D01*
X148816666Y-95652380D02*
X149150000Y-95176190D01*
X149388095Y-95652380D02*
X149388095Y-94652380D01*
X149007142Y-94652380D01*
X148911904Y-94700000D01*
X148864285Y-94747619D01*
X148816666Y-94842857D01*
X148816666Y-94985714D01*
X148864285Y-95080952D01*
X148911904Y-95128571D01*
X149007142Y-95176190D01*
X149388095Y-95176190D01*
X148435714Y-94747619D02*
X148388095Y-94700000D01*
X148292857Y-94652380D01*
X148054761Y-94652380D01*
X147959523Y-94700000D01*
X147911904Y-94747619D01*
X147864285Y-94842857D01*
X147864285Y-94938095D01*
X147911904Y-95080952D01*
X148483333Y-95652380D01*
X147864285Y-95652380D01*
X143602380Y-99883333D02*
X143126190Y-99550000D01*
X143602380Y-99311904D02*
X142602380Y-99311904D01*
X142602380Y-99692857D01*
X142650000Y-99788095D01*
X142697619Y-99835714D01*
X142792857Y-99883333D01*
X142935714Y-99883333D01*
X143030952Y-99835714D01*
X143078571Y-99788095D01*
X143126190Y-99692857D01*
X143126190Y-99311904D01*
X142602380Y-100216666D02*
X142602380Y-100835714D01*
X142983333Y-100502380D01*
X142983333Y-100645238D01*
X143030952Y-100740476D01*
X143078571Y-100788095D01*
X143173809Y-100835714D01*
X143411904Y-100835714D01*
X143507142Y-100788095D01*
X143554761Y-100740476D01*
X143602380Y-100645238D01*
X143602380Y-100359523D01*
X143554761Y-100264285D01*
X143507142Y-100216666D01*
X143552380Y-96183333D02*
X143076190Y-95850000D01*
X143552380Y-95611904D02*
X142552380Y-95611904D01*
X142552380Y-95992857D01*
X142600000Y-96088095D01*
X142647619Y-96135714D01*
X142742857Y-96183333D01*
X142885714Y-96183333D01*
X142980952Y-96135714D01*
X143028571Y-96088095D01*
X143076190Y-95992857D01*
X143076190Y-95611904D01*
X142885714Y-97040476D02*
X143552380Y-97040476D01*
X142504761Y-96802380D02*
X143219047Y-96564285D01*
X143219047Y-97183333D01*
X141652380Y-102333333D02*
X141176190Y-102000000D01*
X141652380Y-101761904D02*
X140652380Y-101761904D01*
X140652380Y-102142857D01*
X140700000Y-102238095D01*
X140747619Y-102285714D01*
X140842857Y-102333333D01*
X140985714Y-102333333D01*
X141080952Y-102285714D01*
X141128571Y-102238095D01*
X141176190Y-102142857D01*
X141176190Y-101761904D01*
X140652380Y-103238095D02*
X140652380Y-102761904D01*
X141128571Y-102714285D01*
X141080952Y-102761904D01*
X141033333Y-102857142D01*
X141033333Y-103095238D01*
X141080952Y-103190476D01*
X141128571Y-103238095D01*
X141223809Y-103285714D01*
X141461904Y-103285714D01*
X141557142Y-103238095D01*
X141604761Y-103190476D01*
X141652380Y-103095238D01*
X141652380Y-102857142D01*
X141604761Y-102761904D01*
X141557142Y-102714285D01*
X157216666Y-96402380D02*
X157550000Y-95926190D01*
X157788095Y-96402380D02*
X157788095Y-95402380D01*
X157407142Y-95402380D01*
X157311904Y-95450000D01*
X157264285Y-95497619D01*
X157216666Y-95592857D01*
X157216666Y-95735714D01*
X157264285Y-95830952D01*
X157311904Y-95878571D01*
X157407142Y-95926190D01*
X157788095Y-95926190D01*
X156359523Y-95402380D02*
X156550000Y-95402380D01*
X156645238Y-95450000D01*
X156692857Y-95497619D01*
X156788095Y-95640476D01*
X156835714Y-95830952D01*
X156835714Y-96211904D01*
X156788095Y-96307142D01*
X156740476Y-96354761D01*
X156645238Y-96402380D01*
X156454761Y-96402380D01*
X156359523Y-96354761D01*
X156311904Y-96307142D01*
X156264285Y-96211904D01*
X156264285Y-95973809D01*
X156311904Y-95878571D01*
X156359523Y-95830952D01*
X156454761Y-95783333D01*
X156645238Y-95783333D01*
X156740476Y-95830952D01*
X156788095Y-95878571D01*
X156835714Y-95973809D01*
D10*
X152226190Y-107416666D02*
X151988095Y-107250000D01*
X152226190Y-107130952D02*
X151726190Y-107130952D01*
X151726190Y-107321428D01*
X151750000Y-107369047D01*
X151773809Y-107392857D01*
X151821428Y-107416666D01*
X151892857Y-107416666D01*
X151940476Y-107392857D01*
X151964285Y-107369047D01*
X151988095Y-107321428D01*
X151988095Y-107130952D01*
X151726190Y-107583333D02*
X151726190Y-107916666D01*
X152226190Y-107702380D01*
D11*
X159679166Y-103952380D02*
X160012500Y-103476190D01*
X160250595Y-103952380D02*
X160250595Y-102952380D01*
X159869642Y-102952380D01*
X159774404Y-103000000D01*
X159726785Y-103047619D01*
X159679166Y-103142857D01*
X159679166Y-103285714D01*
X159726785Y-103380952D01*
X159774404Y-103428571D01*
X159869642Y-103476190D01*
X160250595Y-103476190D01*
X159107738Y-103380952D02*
X159202976Y-103333333D01*
X159250595Y-103285714D01*
X159298214Y-103190476D01*
X159298214Y-103142857D01*
X159250595Y-103047619D01*
X159202976Y-103000000D01*
X159107738Y-102952380D01*
X158917261Y-102952380D01*
X158822023Y-103000000D01*
X158774404Y-103047619D01*
X158726785Y-103142857D01*
X158726785Y-103190476D01*
X158774404Y-103285714D01*
X158822023Y-103333333D01*
X158917261Y-103380952D01*
X159107738Y-103380952D01*
X159202976Y-103428571D01*
X159250595Y-103476190D01*
X159298214Y-103571428D01*
X159298214Y-103761904D01*
X159250595Y-103857142D01*
X159202976Y-103904761D01*
X159107738Y-103952380D01*
X158917261Y-103952380D01*
X158822023Y-103904761D01*
X158774404Y-103857142D01*
X158726785Y-103761904D01*
X158726785Y-103571428D01*
X158774404Y-103476190D01*
X158822023Y-103428571D01*
X158917261Y-103380952D01*
D10*
X144433333Y-108326190D02*
X144600000Y-108088095D01*
X144719047Y-108326190D02*
X144719047Y-107826190D01*
X144528571Y-107826190D01*
X144480952Y-107850000D01*
X144457142Y-107873809D01*
X144433333Y-107921428D01*
X144433333Y-107992857D01*
X144457142Y-108040476D01*
X144480952Y-108064285D01*
X144528571Y-108088095D01*
X144719047Y-108088095D01*
X144195238Y-108326190D02*
X144100000Y-108326190D01*
X144052380Y-108302380D01*
X144028571Y-108278571D01*
X143980952Y-108207142D01*
X143957142Y-108111904D01*
X143957142Y-107921428D01*
X143980952Y-107873809D01*
X144004761Y-107850000D01*
X144052380Y-107826190D01*
X144147619Y-107826190D01*
X144195238Y-107850000D01*
X144219047Y-107873809D01*
X144242857Y-107921428D01*
X144242857Y-108040476D01*
X144219047Y-108088095D01*
X144195238Y-108111904D01*
X144147619Y-108135714D01*
X144052380Y-108135714D01*
X144004761Y-108111904D01*
X143980952Y-108088095D01*
X143957142Y-108040476D01*
D11*
X148461904Y-103652380D02*
X148461904Y-104461904D01*
X148414285Y-104557142D01*
X148366666Y-104604761D01*
X148271428Y-104652380D01*
X148080952Y-104652380D01*
X147985714Y-104604761D01*
X147938095Y-104557142D01*
X147890476Y-104461904D01*
X147890476Y-103652380D01*
X146890476Y-104652380D02*
X147461904Y-104652380D01*
X147176190Y-104652380D02*
X147176190Y-103652380D01*
X147271428Y-103795238D01*
X147366666Y-103890476D01*
X147461904Y-103938095D01*
X161485714Y-107878571D02*
X161342857Y-107926190D01*
X161295238Y-107973809D01*
X161247619Y-108069047D01*
X161247619Y-108211904D01*
X161295238Y-108307142D01*
X161342857Y-108354761D01*
X161438095Y-108402380D01*
X161819047Y-108402380D01*
X161819047Y-107402380D01*
X161485714Y-107402380D01*
X161390476Y-107450000D01*
X161342857Y-107497619D01*
X161295238Y-107592857D01*
X161295238Y-107688095D01*
X161342857Y-107783333D01*
X161390476Y-107830952D01*
X161485714Y-107878571D01*
X161819047Y-107878571D01*
X160961904Y-107402380D02*
X160390476Y-107402380D01*
X160676190Y-108402380D02*
X160676190Y-107402380D01*
X159533333Y-108402380D02*
X160104761Y-108402380D01*
X159819047Y-108402380D02*
X159819047Y-107402380D01*
X159914285Y-107545238D01*
X160009523Y-107640476D01*
X160104761Y-107688095D01*
M02*
