G04 #@! TF.GenerationSoftware,KiCad,Pcbnew,5.1.0*
G04 #@! TF.CreationDate,2019-05-19T21:56:43+02:00*
G04 #@! TF.ProjectId,beeper,62656570-6572-42e6-9b69-6361645f7063,rev?*
G04 #@! TF.SameCoordinates,Original*
G04 #@! TF.FileFunction,Paste,Top*
G04 #@! TF.FilePolarity,Positive*
%FSLAX46Y46*%
G04 Gerber Fmt 4.6, Leading zero omitted, Abs format (unit mm)*
G04 Created by KiCad (PCBNEW 5.1.0) date 2019-05-19 21:56:43*
%MOMM*%
%LPD*%
G04 APERTURE LIST*
%ADD10C,0.150000*%
%ADD11C,0.100000*%
%ADD12C,1.300000*%
%ADD13R,1.500000X1.500000*%
%ADD14C,0.975000*%
%ADD15R,1.300000X3.400000*%
G04 APERTURE END LIST*
D10*
X136500000Y-108700000D02*
X136500000Y-94500000D01*
X163300000Y-108700000D02*
X136500000Y-108700000D01*
X163250000Y-94500000D02*
X163300000Y-108700000D01*
X136500000Y-94500000D02*
X163250000Y-94500000D01*
D11*
G36*
X156924504Y-104563704D02*
G01*
X156948773Y-104567304D01*
X156972571Y-104573265D01*
X156995671Y-104581530D01*
X157017849Y-104592020D01*
X157038893Y-104604633D01*
X157058598Y-104619247D01*
X157076777Y-104635723D01*
X157093253Y-104653902D01*
X157107867Y-104673607D01*
X157120480Y-104694651D01*
X157130970Y-104716829D01*
X157139235Y-104739929D01*
X157145196Y-104763727D01*
X157148796Y-104787996D01*
X157150000Y-104812500D01*
X157150000Y-105637500D01*
X157148796Y-105662004D01*
X157145196Y-105686273D01*
X157139235Y-105710071D01*
X157130970Y-105733171D01*
X157120480Y-105755349D01*
X157107867Y-105776393D01*
X157093253Y-105796098D01*
X157076777Y-105814277D01*
X157058598Y-105830753D01*
X157038893Y-105845367D01*
X157017849Y-105857980D01*
X156995671Y-105868470D01*
X156972571Y-105876735D01*
X156948773Y-105882696D01*
X156924504Y-105886296D01*
X156900000Y-105887500D01*
X156100000Y-105887500D01*
X156075496Y-105886296D01*
X156051227Y-105882696D01*
X156027429Y-105876735D01*
X156004329Y-105868470D01*
X155982151Y-105857980D01*
X155961107Y-105845367D01*
X155941402Y-105830753D01*
X155923223Y-105814277D01*
X155906747Y-105796098D01*
X155892133Y-105776393D01*
X155879520Y-105755349D01*
X155869030Y-105733171D01*
X155860765Y-105710071D01*
X155854804Y-105686273D01*
X155851204Y-105662004D01*
X155850000Y-105637500D01*
X155850000Y-104812500D01*
X155851204Y-104787996D01*
X155854804Y-104763727D01*
X155860765Y-104739929D01*
X155869030Y-104716829D01*
X155879520Y-104694651D01*
X155892133Y-104673607D01*
X155906747Y-104653902D01*
X155923223Y-104635723D01*
X155941402Y-104619247D01*
X155961107Y-104604633D01*
X155982151Y-104592020D01*
X156004329Y-104581530D01*
X156027429Y-104573265D01*
X156051227Y-104567304D01*
X156075496Y-104563704D01*
X156100000Y-104562500D01*
X156900000Y-104562500D01*
X156924504Y-104563704D01*
X156924504Y-104563704D01*
G37*
D12*
X156500000Y-105225000D03*
D11*
G36*
X156924504Y-102638704D02*
G01*
X156948773Y-102642304D01*
X156972571Y-102648265D01*
X156995671Y-102656530D01*
X157017849Y-102667020D01*
X157038893Y-102679633D01*
X157058598Y-102694247D01*
X157076777Y-102710723D01*
X157093253Y-102728902D01*
X157107867Y-102748607D01*
X157120480Y-102769651D01*
X157130970Y-102791829D01*
X157139235Y-102814929D01*
X157145196Y-102838727D01*
X157148796Y-102862996D01*
X157150000Y-102887500D01*
X157150000Y-103712500D01*
X157148796Y-103737004D01*
X157145196Y-103761273D01*
X157139235Y-103785071D01*
X157130970Y-103808171D01*
X157120480Y-103830349D01*
X157107867Y-103851393D01*
X157093253Y-103871098D01*
X157076777Y-103889277D01*
X157058598Y-103905753D01*
X157038893Y-103920367D01*
X157017849Y-103932980D01*
X156995671Y-103943470D01*
X156972571Y-103951735D01*
X156948773Y-103957696D01*
X156924504Y-103961296D01*
X156900000Y-103962500D01*
X156100000Y-103962500D01*
X156075496Y-103961296D01*
X156051227Y-103957696D01*
X156027429Y-103951735D01*
X156004329Y-103943470D01*
X155982151Y-103932980D01*
X155961107Y-103920367D01*
X155941402Y-103905753D01*
X155923223Y-103889277D01*
X155906747Y-103871098D01*
X155892133Y-103851393D01*
X155879520Y-103830349D01*
X155869030Y-103808171D01*
X155860765Y-103785071D01*
X155854804Y-103761273D01*
X155851204Y-103737004D01*
X155850000Y-103712500D01*
X155850000Y-102887500D01*
X155851204Y-102862996D01*
X155854804Y-102838727D01*
X155860765Y-102814929D01*
X155869030Y-102791829D01*
X155879520Y-102769651D01*
X155892133Y-102748607D01*
X155906747Y-102728902D01*
X155923223Y-102710723D01*
X155941402Y-102694247D01*
X155961107Y-102679633D01*
X155982151Y-102667020D01*
X156004329Y-102656530D01*
X156027429Y-102648265D01*
X156051227Y-102642304D01*
X156075496Y-102638704D01*
X156100000Y-102637500D01*
X156900000Y-102637500D01*
X156924504Y-102638704D01*
X156924504Y-102638704D01*
G37*
D12*
X156500000Y-103300000D03*
D11*
G36*
X142112004Y-102851204D02*
G01*
X142136273Y-102854804D01*
X142160071Y-102860765D01*
X142183171Y-102869030D01*
X142205349Y-102879520D01*
X142226393Y-102892133D01*
X142246098Y-102906747D01*
X142264277Y-102923223D01*
X142280753Y-102941402D01*
X142295367Y-102961107D01*
X142307980Y-102982151D01*
X142318470Y-103004329D01*
X142326735Y-103027429D01*
X142332696Y-103051227D01*
X142336296Y-103075496D01*
X142337500Y-103100000D01*
X142337500Y-103900000D01*
X142336296Y-103924504D01*
X142332696Y-103948773D01*
X142326735Y-103972571D01*
X142318470Y-103995671D01*
X142307980Y-104017849D01*
X142295367Y-104038893D01*
X142280753Y-104058598D01*
X142264277Y-104076777D01*
X142246098Y-104093253D01*
X142226393Y-104107867D01*
X142205349Y-104120480D01*
X142183171Y-104130970D01*
X142160071Y-104139235D01*
X142136273Y-104145196D01*
X142112004Y-104148796D01*
X142087500Y-104150000D01*
X141262500Y-104150000D01*
X141237996Y-104148796D01*
X141213727Y-104145196D01*
X141189929Y-104139235D01*
X141166829Y-104130970D01*
X141144651Y-104120480D01*
X141123607Y-104107867D01*
X141103902Y-104093253D01*
X141085723Y-104076777D01*
X141069247Y-104058598D01*
X141054633Y-104038893D01*
X141042020Y-104017849D01*
X141031530Y-103995671D01*
X141023265Y-103972571D01*
X141017304Y-103948773D01*
X141013704Y-103924504D01*
X141012500Y-103900000D01*
X141012500Y-103100000D01*
X141013704Y-103075496D01*
X141017304Y-103051227D01*
X141023265Y-103027429D01*
X141031530Y-103004329D01*
X141042020Y-102982151D01*
X141054633Y-102961107D01*
X141069247Y-102941402D01*
X141085723Y-102923223D01*
X141103902Y-102906747D01*
X141123607Y-102892133D01*
X141144651Y-102879520D01*
X141166829Y-102869030D01*
X141189929Y-102860765D01*
X141213727Y-102854804D01*
X141237996Y-102851204D01*
X141262500Y-102850000D01*
X142087500Y-102850000D01*
X142112004Y-102851204D01*
X142112004Y-102851204D01*
G37*
D12*
X141675000Y-103500000D03*
D11*
G36*
X140187004Y-102851204D02*
G01*
X140211273Y-102854804D01*
X140235071Y-102860765D01*
X140258171Y-102869030D01*
X140280349Y-102879520D01*
X140301393Y-102892133D01*
X140321098Y-102906747D01*
X140339277Y-102923223D01*
X140355753Y-102941402D01*
X140370367Y-102961107D01*
X140382980Y-102982151D01*
X140393470Y-103004329D01*
X140401735Y-103027429D01*
X140407696Y-103051227D01*
X140411296Y-103075496D01*
X140412500Y-103100000D01*
X140412500Y-103900000D01*
X140411296Y-103924504D01*
X140407696Y-103948773D01*
X140401735Y-103972571D01*
X140393470Y-103995671D01*
X140382980Y-104017849D01*
X140370367Y-104038893D01*
X140355753Y-104058598D01*
X140339277Y-104076777D01*
X140321098Y-104093253D01*
X140301393Y-104107867D01*
X140280349Y-104120480D01*
X140258171Y-104130970D01*
X140235071Y-104139235D01*
X140211273Y-104145196D01*
X140187004Y-104148796D01*
X140162500Y-104150000D01*
X139337500Y-104150000D01*
X139312996Y-104148796D01*
X139288727Y-104145196D01*
X139264929Y-104139235D01*
X139241829Y-104130970D01*
X139219651Y-104120480D01*
X139198607Y-104107867D01*
X139178902Y-104093253D01*
X139160723Y-104076777D01*
X139144247Y-104058598D01*
X139129633Y-104038893D01*
X139117020Y-104017849D01*
X139106530Y-103995671D01*
X139098265Y-103972571D01*
X139092304Y-103948773D01*
X139088704Y-103924504D01*
X139087500Y-103900000D01*
X139087500Y-103100000D01*
X139088704Y-103075496D01*
X139092304Y-103051227D01*
X139098265Y-103027429D01*
X139106530Y-103004329D01*
X139117020Y-102982151D01*
X139129633Y-102961107D01*
X139144247Y-102941402D01*
X139160723Y-102923223D01*
X139178902Y-102906747D01*
X139198607Y-102892133D01*
X139219651Y-102879520D01*
X139241829Y-102869030D01*
X139264929Y-102860765D01*
X139288727Y-102854804D01*
X139312996Y-102851204D01*
X139337500Y-102850000D01*
X140162500Y-102850000D01*
X140187004Y-102851204D01*
X140187004Y-102851204D01*
G37*
D12*
X139750000Y-103500000D03*
D13*
X145225000Y-106500000D03*
X137425000Y-106500000D03*
D11*
G36*
X159080142Y-104688674D02*
G01*
X159103803Y-104692184D01*
X159127007Y-104697996D01*
X159149529Y-104706054D01*
X159171153Y-104716282D01*
X159191670Y-104728579D01*
X159210883Y-104742829D01*
X159228607Y-104758893D01*
X159244671Y-104776617D01*
X159258921Y-104795830D01*
X159271218Y-104816347D01*
X159281446Y-104837971D01*
X159289504Y-104860493D01*
X159295316Y-104883697D01*
X159298826Y-104907358D01*
X159300000Y-104931250D01*
X159300000Y-105418750D01*
X159298826Y-105442642D01*
X159295316Y-105466303D01*
X159289504Y-105489507D01*
X159281446Y-105512029D01*
X159271218Y-105533653D01*
X159258921Y-105554170D01*
X159244671Y-105573383D01*
X159228607Y-105591107D01*
X159210883Y-105607171D01*
X159191670Y-105621421D01*
X159171153Y-105633718D01*
X159149529Y-105643946D01*
X159127007Y-105652004D01*
X159103803Y-105657816D01*
X159080142Y-105661326D01*
X159056250Y-105662500D01*
X158143750Y-105662500D01*
X158119858Y-105661326D01*
X158096197Y-105657816D01*
X158072993Y-105652004D01*
X158050471Y-105643946D01*
X158028847Y-105633718D01*
X158008330Y-105621421D01*
X157989117Y-105607171D01*
X157971393Y-105591107D01*
X157955329Y-105573383D01*
X157941079Y-105554170D01*
X157928782Y-105533653D01*
X157918554Y-105512029D01*
X157910496Y-105489507D01*
X157904684Y-105466303D01*
X157901174Y-105442642D01*
X157900000Y-105418750D01*
X157900000Y-104931250D01*
X157901174Y-104907358D01*
X157904684Y-104883697D01*
X157910496Y-104860493D01*
X157918554Y-104837971D01*
X157928782Y-104816347D01*
X157941079Y-104795830D01*
X157955329Y-104776617D01*
X157971393Y-104758893D01*
X157989117Y-104742829D01*
X158008330Y-104728579D01*
X158028847Y-104716282D01*
X158050471Y-104706054D01*
X158072993Y-104697996D01*
X158096197Y-104692184D01*
X158119858Y-104688674D01*
X158143750Y-104687500D01*
X159056250Y-104687500D01*
X159080142Y-104688674D01*
X159080142Y-104688674D01*
G37*
D14*
X158600000Y-105175000D03*
D11*
G36*
X159080142Y-102813674D02*
G01*
X159103803Y-102817184D01*
X159127007Y-102822996D01*
X159149529Y-102831054D01*
X159171153Y-102841282D01*
X159191670Y-102853579D01*
X159210883Y-102867829D01*
X159228607Y-102883893D01*
X159244671Y-102901617D01*
X159258921Y-102920830D01*
X159271218Y-102941347D01*
X159281446Y-102962971D01*
X159289504Y-102985493D01*
X159295316Y-103008697D01*
X159298826Y-103032358D01*
X159300000Y-103056250D01*
X159300000Y-103543750D01*
X159298826Y-103567642D01*
X159295316Y-103591303D01*
X159289504Y-103614507D01*
X159281446Y-103637029D01*
X159271218Y-103658653D01*
X159258921Y-103679170D01*
X159244671Y-103698383D01*
X159228607Y-103716107D01*
X159210883Y-103732171D01*
X159191670Y-103746421D01*
X159171153Y-103758718D01*
X159149529Y-103768946D01*
X159127007Y-103777004D01*
X159103803Y-103782816D01*
X159080142Y-103786326D01*
X159056250Y-103787500D01*
X158143750Y-103787500D01*
X158119858Y-103786326D01*
X158096197Y-103782816D01*
X158072993Y-103777004D01*
X158050471Y-103768946D01*
X158028847Y-103758718D01*
X158008330Y-103746421D01*
X157989117Y-103732171D01*
X157971393Y-103716107D01*
X157955329Y-103698383D01*
X157941079Y-103679170D01*
X157928782Y-103658653D01*
X157918554Y-103637029D01*
X157910496Y-103614507D01*
X157904684Y-103591303D01*
X157901174Y-103567642D01*
X157900000Y-103543750D01*
X157900000Y-103056250D01*
X157901174Y-103032358D01*
X157904684Y-103008697D01*
X157910496Y-102985493D01*
X157918554Y-102962971D01*
X157928782Y-102941347D01*
X157941079Y-102920830D01*
X157955329Y-102901617D01*
X157971393Y-102883893D01*
X157989117Y-102867829D01*
X158008330Y-102853579D01*
X158028847Y-102841282D01*
X158050471Y-102831054D01*
X158072993Y-102822996D01*
X158096197Y-102817184D01*
X158119858Y-102813674D01*
X158143750Y-102812500D01*
X159056250Y-102812500D01*
X159080142Y-102813674D01*
X159080142Y-102813674D01*
G37*
D14*
X158600000Y-103300000D03*
D15*
X153800000Y-100800000D03*
X145100000Y-100800000D03*
M02*
