G04 #@! TF.GenerationSoftware,KiCad,Pcbnew,5.1.0*
G04 #@! TF.CreationDate,2019-05-19T21:56:43+02:00*
G04 #@! TF.ProjectId,beeper,62656570-6572-42e6-9b69-6361645f7063,rev?*
G04 #@! TF.SameCoordinates,Original*
G04 #@! TF.FileFunction,Soldermask,Bot*
G04 #@! TF.FilePolarity,Negative*
%FSLAX46Y46*%
G04 Gerber Fmt 4.6, Leading zero omitted, Abs format (unit mm)*
G04 Created by KiCad (PCBNEW 5.1.0) date 2019-05-19 21:56:43*
%MOMM*%
%LPD*%
G04 APERTURE LIST*
%ADD10C,0.150000*%
%ADD11C,0.100000*%
G04 APERTURE END LIST*
D10*
X136500000Y-108700000D02*
X136500000Y-94500000D01*
X163300000Y-108700000D02*
X136500000Y-108700000D01*
X163250000Y-94500000D02*
X163300000Y-108700000D01*
X136500000Y-94500000D02*
X163250000Y-94500000D01*
D11*
G36*
X147821848Y-107053764D02*
G01*
X147860500Y-107065489D01*
X147896123Y-107084530D01*
X147927346Y-107110154D01*
X147952970Y-107141377D01*
X147972011Y-107177000D01*
X147983736Y-107215652D01*
X147988300Y-107261991D01*
X147988300Y-108338009D01*
X147983736Y-108384348D01*
X147972011Y-108423000D01*
X147952970Y-108458623D01*
X147927346Y-108489846D01*
X147896123Y-108515470D01*
X147860500Y-108534511D01*
X147821848Y-108546236D01*
X147775509Y-108550800D01*
X147124491Y-108550800D01*
X147078152Y-108546236D01*
X147039500Y-108534511D01*
X147003877Y-108515470D01*
X146972654Y-108489846D01*
X146947030Y-108458623D01*
X146927989Y-108423000D01*
X146916264Y-108384348D01*
X146911700Y-108338009D01*
X146911700Y-107261991D01*
X146916264Y-107215652D01*
X146927989Y-107177000D01*
X146947030Y-107141377D01*
X146972654Y-107110154D01*
X147003877Y-107084530D01*
X147039500Y-107065489D01*
X147078152Y-107053764D01*
X147124491Y-107049200D01*
X147775509Y-107049200D01*
X147821848Y-107053764D01*
X147821848Y-107053764D01*
G37*
G36*
X145946848Y-107053764D02*
G01*
X145985500Y-107065489D01*
X146021123Y-107084530D01*
X146052346Y-107110154D01*
X146077970Y-107141377D01*
X146097011Y-107177000D01*
X146108736Y-107215652D01*
X146113300Y-107261991D01*
X146113300Y-108338009D01*
X146108736Y-108384348D01*
X146097011Y-108423000D01*
X146077970Y-108458623D01*
X146052346Y-108489846D01*
X146021123Y-108515470D01*
X145985500Y-108534511D01*
X145946848Y-108546236D01*
X145900509Y-108550800D01*
X145249491Y-108550800D01*
X145203152Y-108546236D01*
X145164500Y-108534511D01*
X145128877Y-108515470D01*
X145097654Y-108489846D01*
X145072030Y-108458623D01*
X145052989Y-108423000D01*
X145041264Y-108384348D01*
X145036700Y-108338009D01*
X145036700Y-107261991D01*
X145041264Y-107215652D01*
X145052989Y-107177000D01*
X145072030Y-107141377D01*
X145097654Y-107110154D01*
X145128877Y-107084530D01*
X145164500Y-107065489D01*
X145203152Y-107053764D01*
X145249491Y-107049200D01*
X145900509Y-107049200D01*
X145946848Y-107053764D01*
X145946848Y-107053764D01*
G37*
G36*
X157825800Y-108225800D02*
G01*
X156374200Y-108225800D01*
X156374200Y-106774200D01*
X157825800Y-106774200D01*
X157825800Y-108225800D01*
X157825800Y-108225800D01*
G37*
G36*
X155242283Y-106784702D02*
G01*
X155379095Y-106826204D01*
X155505183Y-106893599D01*
X155615701Y-106984299D01*
X155706401Y-107094817D01*
X155773796Y-107220905D01*
X155815298Y-107357717D01*
X155829311Y-107500000D01*
X155815298Y-107642283D01*
X155773796Y-107779095D01*
X155706401Y-107905183D01*
X155615701Y-108015701D01*
X155505183Y-108106401D01*
X155379095Y-108173796D01*
X155242283Y-108215298D01*
X155135650Y-108225800D01*
X155064350Y-108225800D01*
X154957717Y-108215298D01*
X154820905Y-108173796D01*
X154694817Y-108106401D01*
X154584299Y-108015701D01*
X154493599Y-107905183D01*
X154426204Y-107779095D01*
X154384702Y-107642283D01*
X154370689Y-107500000D01*
X154384702Y-107357717D01*
X154426204Y-107220905D01*
X154493599Y-107094817D01*
X154584299Y-106984299D01*
X154694817Y-106893599D01*
X154820905Y-106826204D01*
X154957717Y-106784702D01*
X155064350Y-106774200D01*
X155135650Y-106774200D01*
X155242283Y-106784702D01*
X155242283Y-106784702D01*
G37*
G36*
X149371848Y-106653764D02*
G01*
X149410500Y-106665489D01*
X149446123Y-106684530D01*
X149477346Y-106710154D01*
X149502970Y-106741377D01*
X149522011Y-106777000D01*
X149533736Y-106815652D01*
X149538300Y-106861991D01*
X149538300Y-107938009D01*
X149533736Y-107984348D01*
X149522011Y-108023000D01*
X149502970Y-108058623D01*
X149477346Y-108089846D01*
X149446123Y-108115470D01*
X149410500Y-108134511D01*
X149371848Y-108146236D01*
X149325509Y-108150800D01*
X148674491Y-108150800D01*
X148628152Y-108146236D01*
X148589500Y-108134511D01*
X148553877Y-108115470D01*
X148522654Y-108089846D01*
X148497030Y-108058623D01*
X148477989Y-108023000D01*
X148466264Y-107984348D01*
X148461700Y-107938009D01*
X148461700Y-106861991D01*
X148466264Y-106815652D01*
X148477989Y-106777000D01*
X148497030Y-106741377D01*
X148522654Y-106710154D01*
X148553877Y-106684530D01*
X148589500Y-106665489D01*
X148628152Y-106653764D01*
X148674491Y-106649200D01*
X149325509Y-106649200D01*
X149371848Y-106653764D01*
X149371848Y-106653764D01*
G37*
G36*
X151246848Y-106653764D02*
G01*
X151285500Y-106665489D01*
X151321123Y-106684530D01*
X151352346Y-106710154D01*
X151377970Y-106741377D01*
X151397011Y-106777000D01*
X151408736Y-106815652D01*
X151413300Y-106861991D01*
X151413300Y-107938009D01*
X151408736Y-107984348D01*
X151397011Y-108023000D01*
X151377970Y-108058623D01*
X151352346Y-108089846D01*
X151321123Y-108115470D01*
X151285500Y-108134511D01*
X151246848Y-108146236D01*
X151200509Y-108150800D01*
X150549491Y-108150800D01*
X150503152Y-108146236D01*
X150464500Y-108134511D01*
X150428877Y-108115470D01*
X150397654Y-108089846D01*
X150372030Y-108058623D01*
X150352989Y-108023000D01*
X150341264Y-107984348D01*
X150336700Y-107938009D01*
X150336700Y-106861991D01*
X150341264Y-106815652D01*
X150352989Y-106777000D01*
X150372030Y-106741377D01*
X150397654Y-106710154D01*
X150428877Y-106684530D01*
X150464500Y-106665489D01*
X150503152Y-106653764D01*
X150549491Y-106649200D01*
X151200509Y-106649200D01*
X151246848Y-106653764D01*
X151246848Y-106653764D01*
G37*
G36*
X138660659Y-106570366D02*
G01*
X138660661Y-106570367D01*
X138660662Y-106570367D01*
X138760902Y-106611887D01*
X138851114Y-106672166D01*
X138927834Y-106748886D01*
X138988113Y-106839098D01*
X139029633Y-106939338D01*
X139029634Y-106939341D01*
X139050800Y-107045750D01*
X139050800Y-107154250D01*
X139037542Y-107220905D01*
X139029633Y-107260662D01*
X138988113Y-107360902D01*
X138927834Y-107451114D01*
X138851114Y-107527834D01*
X138760902Y-107588113D01*
X138660662Y-107629633D01*
X138660661Y-107629633D01*
X138660659Y-107629634D01*
X138554250Y-107650800D01*
X138445750Y-107650800D01*
X138339341Y-107629634D01*
X138339339Y-107629633D01*
X138339338Y-107629633D01*
X138239098Y-107588113D01*
X138148886Y-107527834D01*
X138072166Y-107451114D01*
X138011887Y-107360902D01*
X137970367Y-107260662D01*
X137962459Y-107220905D01*
X137949200Y-107154250D01*
X137949200Y-107045750D01*
X137970366Y-106939341D01*
X137970367Y-106939338D01*
X138011887Y-106839098D01*
X138072166Y-106748886D01*
X138148886Y-106672166D01*
X138239098Y-106611887D01*
X138339338Y-106570367D01*
X138339339Y-106570367D01*
X138339341Y-106570366D01*
X138445750Y-106549200D01*
X138554250Y-106549200D01*
X138660659Y-106570366D01*
X138660659Y-106570366D01*
G37*
G36*
X162400800Y-106900800D02*
G01*
X160599200Y-106900800D01*
X160599200Y-105099200D01*
X162400800Y-105099200D01*
X162400800Y-106900800D01*
X162400800Y-106900800D01*
G37*
G36*
X146700800Y-106600800D02*
G01*
X145799200Y-106600800D01*
X145799200Y-105599200D01*
X146700800Y-105599200D01*
X146700800Y-106600800D01*
X146700800Y-106600800D01*
G37*
G36*
X144800800Y-106600800D02*
G01*
X143899200Y-106600800D01*
X143899200Y-105599200D01*
X144800800Y-105599200D01*
X144800800Y-106600800D01*
X144800800Y-106600800D01*
G37*
G36*
X152779468Y-105390783D02*
G01*
X152813433Y-105401086D01*
X152844734Y-105417817D01*
X152872168Y-105440332D01*
X152894683Y-105467766D01*
X152911414Y-105499067D01*
X152921717Y-105533032D01*
X152925800Y-105574490D01*
X152925800Y-106175510D01*
X152921717Y-106216968D01*
X152911414Y-106250933D01*
X152894683Y-106282234D01*
X152872168Y-106309668D01*
X152844734Y-106332183D01*
X152813433Y-106348914D01*
X152779468Y-106359217D01*
X152738010Y-106363300D01*
X152061990Y-106363300D01*
X152020532Y-106359217D01*
X151986567Y-106348914D01*
X151955266Y-106332183D01*
X151927832Y-106309668D01*
X151905317Y-106282234D01*
X151888586Y-106250933D01*
X151878283Y-106216968D01*
X151874200Y-106175510D01*
X151874200Y-105574490D01*
X151878283Y-105533032D01*
X151888586Y-105499067D01*
X151905317Y-105467766D01*
X151927832Y-105440332D01*
X151955266Y-105417817D01*
X151986567Y-105401086D01*
X152020532Y-105390783D01*
X152061990Y-105386700D01*
X152738010Y-105386700D01*
X152779468Y-105390783D01*
X152779468Y-105390783D01*
G37*
G36*
X150450800Y-106250800D02*
G01*
X148349200Y-106250800D01*
X148349200Y-103149200D01*
X150450800Y-103149200D01*
X150450800Y-106250800D01*
X150450800Y-106250800D01*
G37*
G36*
X142979468Y-105265783D02*
G01*
X143013433Y-105276086D01*
X143044734Y-105292817D01*
X143072168Y-105315332D01*
X143094683Y-105342766D01*
X143111414Y-105374067D01*
X143121717Y-105408032D01*
X143125800Y-105449490D01*
X143125800Y-106050510D01*
X143121717Y-106091968D01*
X143111414Y-106125933D01*
X143094683Y-106157234D01*
X143072168Y-106184668D01*
X143044734Y-106207183D01*
X143013433Y-106223914D01*
X142979468Y-106234217D01*
X142938010Y-106238300D01*
X142261990Y-106238300D01*
X142220532Y-106234217D01*
X142186567Y-106223914D01*
X142155266Y-106207183D01*
X142127832Y-106184668D01*
X142105317Y-106157234D01*
X142088586Y-106125933D01*
X142078283Y-106091968D01*
X142074200Y-106050510D01*
X142074200Y-105449490D01*
X142078283Y-105408032D01*
X142088586Y-105374067D01*
X142105317Y-105342766D01*
X142127832Y-105315332D01*
X142155266Y-105292817D01*
X142186567Y-105276086D01*
X142220532Y-105265783D01*
X142261990Y-105261700D01*
X142938010Y-105261700D01*
X142979468Y-105265783D01*
X142979468Y-105265783D01*
G37*
G36*
X156196848Y-104453764D02*
G01*
X156235500Y-104465489D01*
X156271123Y-104484530D01*
X156302346Y-104510154D01*
X156327970Y-104541377D01*
X156347011Y-104577000D01*
X156358736Y-104615652D01*
X156363300Y-104661991D01*
X156363300Y-105738009D01*
X156358736Y-105784348D01*
X156347011Y-105823000D01*
X156327970Y-105858623D01*
X156302346Y-105889846D01*
X156271123Y-105915470D01*
X156235500Y-105934511D01*
X156196848Y-105946236D01*
X156150509Y-105950800D01*
X155499491Y-105950800D01*
X155453152Y-105946236D01*
X155414500Y-105934511D01*
X155378877Y-105915470D01*
X155347654Y-105889846D01*
X155322030Y-105858623D01*
X155302989Y-105823000D01*
X155291264Y-105784348D01*
X155286700Y-105738009D01*
X155286700Y-104661991D01*
X155291264Y-104615652D01*
X155302989Y-104577000D01*
X155322030Y-104541377D01*
X155347654Y-104510154D01*
X155378877Y-104484530D01*
X155414500Y-104465489D01*
X155453152Y-104453764D01*
X155499491Y-104449200D01*
X156150509Y-104449200D01*
X156196848Y-104453764D01*
X156196848Y-104453764D01*
G37*
G36*
X158071848Y-104453764D02*
G01*
X158110500Y-104465489D01*
X158146123Y-104484530D01*
X158177346Y-104510154D01*
X158202970Y-104541377D01*
X158222011Y-104577000D01*
X158233736Y-104615652D01*
X158238300Y-104661991D01*
X158238300Y-105738009D01*
X158233736Y-105784348D01*
X158222011Y-105823000D01*
X158202970Y-105858623D01*
X158177346Y-105889846D01*
X158146123Y-105915470D01*
X158110500Y-105934511D01*
X158071848Y-105946236D01*
X158025509Y-105950800D01*
X157374491Y-105950800D01*
X157328152Y-105946236D01*
X157289500Y-105934511D01*
X157253877Y-105915470D01*
X157222654Y-105889846D01*
X157197030Y-105858623D01*
X157177989Y-105823000D01*
X157166264Y-105784348D01*
X157161700Y-105738009D01*
X157161700Y-104661991D01*
X157166264Y-104615652D01*
X157177989Y-104577000D01*
X157197030Y-104541377D01*
X157222654Y-104510154D01*
X157253877Y-104484530D01*
X157289500Y-104465489D01*
X157328152Y-104453764D01*
X157374491Y-104449200D01*
X158025509Y-104449200D01*
X158071848Y-104453764D01*
X158071848Y-104453764D01*
G37*
G36*
X138660659Y-104470366D02*
G01*
X138660661Y-104470367D01*
X138660662Y-104470367D01*
X138760902Y-104511887D01*
X138851114Y-104572166D01*
X138927834Y-104648886D01*
X138988113Y-104739098D01*
X139029633Y-104839338D01*
X139050800Y-104945751D01*
X139050800Y-105054249D01*
X139029633Y-105160662D01*
X138988113Y-105260902D01*
X138927834Y-105351114D01*
X138851114Y-105427834D01*
X138760902Y-105488113D01*
X138660662Y-105529633D01*
X138660661Y-105529633D01*
X138660659Y-105529634D01*
X138554250Y-105550800D01*
X138445750Y-105550800D01*
X138339341Y-105529634D01*
X138339339Y-105529633D01*
X138339338Y-105529633D01*
X138239098Y-105488113D01*
X138148886Y-105427834D01*
X138072166Y-105351114D01*
X138011887Y-105260902D01*
X137970367Y-105160662D01*
X137949200Y-105054249D01*
X137949200Y-104945751D01*
X137970367Y-104839338D01*
X138011887Y-104739098D01*
X138072166Y-104648886D01*
X138148886Y-104572166D01*
X138239098Y-104511887D01*
X138339338Y-104470367D01*
X138339339Y-104470367D01*
X138339341Y-104470366D01*
X138445750Y-104449200D01*
X138554250Y-104449200D01*
X138660659Y-104470366D01*
X138660659Y-104470366D01*
G37*
G36*
X154684348Y-104441264D02*
G01*
X154723000Y-104452989D01*
X154758623Y-104472030D01*
X154789846Y-104497654D01*
X154815470Y-104528877D01*
X154834511Y-104564500D01*
X154846236Y-104603152D01*
X154850800Y-104649491D01*
X154850800Y-105300509D01*
X154846236Y-105346848D01*
X154834511Y-105385500D01*
X154815470Y-105421123D01*
X154789846Y-105452346D01*
X154758623Y-105477970D01*
X154723000Y-105497011D01*
X154684348Y-105508736D01*
X154638009Y-105513300D01*
X153561991Y-105513300D01*
X153515652Y-105508736D01*
X153477000Y-105497011D01*
X153441377Y-105477970D01*
X153410154Y-105452346D01*
X153384530Y-105421123D01*
X153365489Y-105385500D01*
X153353764Y-105346848D01*
X153349200Y-105300509D01*
X153349200Y-104649491D01*
X153353764Y-104603152D01*
X153365489Y-104564500D01*
X153384530Y-104528877D01*
X153410154Y-104497654D01*
X153441377Y-104472030D01*
X153477000Y-104452989D01*
X153515652Y-104441264D01*
X153561991Y-104436700D01*
X154638009Y-104436700D01*
X154684348Y-104441264D01*
X154684348Y-104441264D01*
G37*
G36*
X152779468Y-103815783D02*
G01*
X152813433Y-103826086D01*
X152844734Y-103842817D01*
X152872168Y-103865332D01*
X152894683Y-103892766D01*
X152911414Y-103924067D01*
X152921717Y-103958032D01*
X152925800Y-103999490D01*
X152925800Y-104600510D01*
X152921717Y-104641968D01*
X152911414Y-104675933D01*
X152894683Y-104707234D01*
X152872168Y-104734668D01*
X152844734Y-104757183D01*
X152813433Y-104773914D01*
X152779468Y-104784217D01*
X152738010Y-104788300D01*
X152061990Y-104788300D01*
X152020532Y-104784217D01*
X151986567Y-104773914D01*
X151955266Y-104757183D01*
X151927832Y-104734668D01*
X151905317Y-104707234D01*
X151888586Y-104675933D01*
X151878283Y-104641968D01*
X151874200Y-104600510D01*
X151874200Y-103999490D01*
X151878283Y-103958032D01*
X151888586Y-103924067D01*
X151905317Y-103892766D01*
X151927832Y-103865332D01*
X151955266Y-103842817D01*
X151986567Y-103826086D01*
X152020532Y-103815783D01*
X152061990Y-103811700D01*
X152738010Y-103811700D01*
X152779468Y-103815783D01*
X152779468Y-103815783D01*
G37*
G36*
X142979468Y-103690783D02*
G01*
X143013433Y-103701086D01*
X143044734Y-103717817D01*
X143072168Y-103740332D01*
X143094683Y-103767766D01*
X143111414Y-103799067D01*
X143121717Y-103833032D01*
X143125800Y-103874490D01*
X143125800Y-104475510D01*
X143121717Y-104516968D01*
X143111414Y-104550933D01*
X143094683Y-104582234D01*
X143072168Y-104609668D01*
X143044734Y-104632183D01*
X143013433Y-104648914D01*
X142979468Y-104659217D01*
X142938010Y-104663300D01*
X142261990Y-104663300D01*
X142220532Y-104659217D01*
X142186567Y-104648914D01*
X142155266Y-104632183D01*
X142127832Y-104609668D01*
X142105317Y-104582234D01*
X142088586Y-104550933D01*
X142078283Y-104516968D01*
X142074200Y-104475510D01*
X142074200Y-103874490D01*
X142078283Y-103833032D01*
X142088586Y-103799067D01*
X142105317Y-103767766D01*
X142127832Y-103740332D01*
X142155266Y-103717817D01*
X142186567Y-103701086D01*
X142220532Y-103690783D01*
X142261990Y-103686700D01*
X142938010Y-103686700D01*
X142979468Y-103690783D01*
X142979468Y-103690783D01*
G37*
G36*
X145750800Y-104600800D02*
G01*
X144849200Y-104600800D01*
X144849200Y-103599200D01*
X145750800Y-103599200D01*
X145750800Y-104600800D01*
X145750800Y-104600800D01*
G37*
G36*
X161588362Y-102563545D02*
G01*
X161676588Y-102572234D01*
X161801592Y-102610154D01*
X161846392Y-102623744D01*
X162002878Y-102707388D01*
X162140044Y-102819956D01*
X162252612Y-102957122D01*
X162336256Y-103113608D01*
X162336257Y-103113611D01*
X162387766Y-103283412D01*
X162405158Y-103460000D01*
X162387766Y-103636588D01*
X162339649Y-103795208D01*
X162336256Y-103806392D01*
X162252612Y-103962878D01*
X162140044Y-104100044D01*
X162002878Y-104212612D01*
X161846392Y-104296256D01*
X161846389Y-104296257D01*
X161676588Y-104347766D01*
X161588362Y-104356455D01*
X161544250Y-104360800D01*
X161455750Y-104360800D01*
X161411638Y-104356455D01*
X161323412Y-104347766D01*
X161153611Y-104296257D01*
X161153608Y-104296256D01*
X160997122Y-104212612D01*
X160859956Y-104100044D01*
X160747388Y-103962878D01*
X160663744Y-103806392D01*
X160660351Y-103795208D01*
X160612234Y-103636588D01*
X160594842Y-103460000D01*
X160612234Y-103283412D01*
X160663743Y-103113611D01*
X160663744Y-103113608D01*
X160747388Y-102957122D01*
X160859956Y-102819956D01*
X160997122Y-102707388D01*
X161153608Y-102623744D01*
X161198408Y-102610154D01*
X161323412Y-102572234D01*
X161411638Y-102563545D01*
X161455750Y-102559200D01*
X161544250Y-102559200D01*
X161588362Y-102563545D01*
X161588362Y-102563545D01*
G37*
G36*
X156196848Y-102553764D02*
G01*
X156235500Y-102565489D01*
X156271123Y-102584530D01*
X156302346Y-102610154D01*
X156327970Y-102641377D01*
X156347011Y-102677000D01*
X156358736Y-102715652D01*
X156363300Y-102761991D01*
X156363300Y-103838009D01*
X156358736Y-103884348D01*
X156347011Y-103923000D01*
X156327970Y-103958623D01*
X156302346Y-103989846D01*
X156271123Y-104015470D01*
X156235500Y-104034511D01*
X156196848Y-104046236D01*
X156150509Y-104050800D01*
X155499491Y-104050800D01*
X155453152Y-104046236D01*
X155414500Y-104034511D01*
X155378877Y-104015470D01*
X155347654Y-103989846D01*
X155322030Y-103958623D01*
X155302989Y-103923000D01*
X155291264Y-103884348D01*
X155286700Y-103838009D01*
X155286700Y-102761991D01*
X155291264Y-102715652D01*
X155302989Y-102677000D01*
X155322030Y-102641377D01*
X155347654Y-102610154D01*
X155378877Y-102584530D01*
X155414500Y-102565489D01*
X155453152Y-102553764D01*
X155499491Y-102549200D01*
X156150509Y-102549200D01*
X156196848Y-102553764D01*
X156196848Y-102553764D01*
G37*
G36*
X158071848Y-102553764D02*
G01*
X158110500Y-102565489D01*
X158146123Y-102584530D01*
X158177346Y-102610154D01*
X158202970Y-102641377D01*
X158222011Y-102677000D01*
X158233736Y-102715652D01*
X158238300Y-102761991D01*
X158238300Y-103838009D01*
X158233736Y-103884348D01*
X158222011Y-103923000D01*
X158202970Y-103958623D01*
X158177346Y-103989846D01*
X158146123Y-104015470D01*
X158110500Y-104034511D01*
X158071848Y-104046236D01*
X158025509Y-104050800D01*
X157374491Y-104050800D01*
X157328152Y-104046236D01*
X157289500Y-104034511D01*
X157253877Y-104015470D01*
X157222654Y-103989846D01*
X157197030Y-103958623D01*
X157177989Y-103923000D01*
X157166264Y-103884348D01*
X157161700Y-103838009D01*
X157161700Y-102761991D01*
X157166264Y-102715652D01*
X157177989Y-102677000D01*
X157197030Y-102641377D01*
X157222654Y-102610154D01*
X157253877Y-102584530D01*
X157289500Y-102565489D01*
X157328152Y-102553764D01*
X157374491Y-102549200D01*
X158025509Y-102549200D01*
X158071848Y-102553764D01*
X158071848Y-102553764D01*
G37*
G36*
X154684348Y-102566264D02*
G01*
X154723000Y-102577989D01*
X154758623Y-102597030D01*
X154789846Y-102622654D01*
X154815470Y-102653877D01*
X154834511Y-102689500D01*
X154846236Y-102728152D01*
X154850800Y-102774491D01*
X154850800Y-103425509D01*
X154846236Y-103471848D01*
X154834511Y-103510500D01*
X154815470Y-103546123D01*
X154789846Y-103577346D01*
X154758623Y-103602970D01*
X154723000Y-103622011D01*
X154684348Y-103633736D01*
X154638009Y-103638300D01*
X153561991Y-103638300D01*
X153515652Y-103633736D01*
X153477000Y-103622011D01*
X153441377Y-103602970D01*
X153410154Y-103577346D01*
X153384530Y-103546123D01*
X153365489Y-103510500D01*
X153353764Y-103471848D01*
X153349200Y-103425509D01*
X153349200Y-102774491D01*
X153353764Y-102728152D01*
X153365489Y-102689500D01*
X153384530Y-102653877D01*
X153410154Y-102622654D01*
X153441377Y-102597030D01*
X153477000Y-102577989D01*
X153515652Y-102566264D01*
X153561991Y-102561700D01*
X154638009Y-102561700D01*
X154684348Y-102566264D01*
X154684348Y-102566264D01*
G37*
G36*
X138660659Y-102370366D02*
G01*
X138660661Y-102370367D01*
X138660662Y-102370367D01*
X138760902Y-102411887D01*
X138851114Y-102472166D01*
X138927834Y-102548886D01*
X138988113Y-102639098D01*
X139029633Y-102739338D01*
X139029634Y-102739341D01*
X139045350Y-102818350D01*
X139050800Y-102845751D01*
X139050800Y-102954249D01*
X139029633Y-103060662D01*
X138988113Y-103160902D01*
X138927834Y-103251114D01*
X138851114Y-103327834D01*
X138760902Y-103388113D01*
X138660662Y-103429633D01*
X138660661Y-103429633D01*
X138660659Y-103429634D01*
X138554250Y-103450800D01*
X138445750Y-103450800D01*
X138339341Y-103429634D01*
X138339339Y-103429633D01*
X138339338Y-103429633D01*
X138239098Y-103388113D01*
X138148886Y-103327834D01*
X138072166Y-103251114D01*
X138011887Y-103160902D01*
X137970367Y-103060662D01*
X137949200Y-102954249D01*
X137949200Y-102845751D01*
X137954650Y-102818350D01*
X137970366Y-102739341D01*
X137970367Y-102739338D01*
X138011887Y-102639098D01*
X138072166Y-102548886D01*
X138148886Y-102472166D01*
X138239098Y-102411887D01*
X138339338Y-102370367D01*
X138339339Y-102370367D01*
X138339341Y-102370366D01*
X138445750Y-102349200D01*
X138554250Y-102349200D01*
X138660659Y-102370366D01*
X138660659Y-102370366D01*
G37*
G36*
X143396848Y-101753764D02*
G01*
X143435500Y-101765489D01*
X143471123Y-101784530D01*
X143502346Y-101810154D01*
X143527970Y-101841377D01*
X143547011Y-101877000D01*
X143558736Y-101915652D01*
X143563300Y-101961991D01*
X143563300Y-103038009D01*
X143558736Y-103084348D01*
X143547011Y-103123000D01*
X143527970Y-103158623D01*
X143502346Y-103189846D01*
X143471123Y-103215470D01*
X143435500Y-103234511D01*
X143396848Y-103246236D01*
X143350509Y-103250800D01*
X142699491Y-103250800D01*
X142653152Y-103246236D01*
X142614500Y-103234511D01*
X142578877Y-103215470D01*
X142547654Y-103189846D01*
X142522030Y-103158623D01*
X142502989Y-103123000D01*
X142491264Y-103084348D01*
X142486700Y-103038009D01*
X142486700Y-101961991D01*
X142491264Y-101915652D01*
X142502989Y-101877000D01*
X142522030Y-101841377D01*
X142547654Y-101810154D01*
X142578877Y-101784530D01*
X142614500Y-101765489D01*
X142653152Y-101753764D01*
X142699491Y-101749200D01*
X143350509Y-101749200D01*
X143396848Y-101753764D01*
X143396848Y-101753764D01*
G37*
G36*
X145271848Y-101753764D02*
G01*
X145310500Y-101765489D01*
X145346123Y-101784530D01*
X145377346Y-101810154D01*
X145402970Y-101841377D01*
X145422011Y-101877000D01*
X145433736Y-101915652D01*
X145438300Y-101961991D01*
X145438300Y-103038009D01*
X145433736Y-103084348D01*
X145422011Y-103123000D01*
X145402970Y-103158623D01*
X145377346Y-103189846D01*
X145346123Y-103215470D01*
X145310500Y-103234511D01*
X145271848Y-103246236D01*
X145225509Y-103250800D01*
X144574491Y-103250800D01*
X144528152Y-103246236D01*
X144489500Y-103234511D01*
X144453877Y-103215470D01*
X144422654Y-103189846D01*
X144397030Y-103158623D01*
X144377989Y-103123000D01*
X144366264Y-103084348D01*
X144361700Y-103038009D01*
X144361700Y-101961991D01*
X144366264Y-101915652D01*
X144377989Y-101877000D01*
X144397030Y-101841377D01*
X144422654Y-101810154D01*
X144453877Y-101784530D01*
X144489500Y-101765489D01*
X144528152Y-101753764D01*
X144574491Y-101749200D01*
X145225509Y-101749200D01*
X145271848Y-101753764D01*
X145271848Y-101753764D01*
G37*
G36*
X147525800Y-103190800D02*
G01*
X145874200Y-103190800D01*
X145874200Y-102489200D01*
X147525800Y-102489200D01*
X147525800Y-103190800D01*
X147525800Y-103190800D01*
G37*
G36*
X152925800Y-103190800D02*
G01*
X151274200Y-103190800D01*
X151274200Y-102489200D01*
X152925800Y-102489200D01*
X152925800Y-103190800D01*
X152925800Y-103190800D01*
G37*
G36*
X152925800Y-101920800D02*
G01*
X151274200Y-101920800D01*
X151274200Y-101219200D01*
X152925800Y-101219200D01*
X152925800Y-101920800D01*
X152925800Y-101920800D01*
G37*
G36*
X147525800Y-101920800D02*
G01*
X145874200Y-101920800D01*
X145874200Y-101219200D01*
X147525800Y-101219200D01*
X147525800Y-101920800D01*
X147525800Y-101920800D01*
G37*
G36*
X154580800Y-101875800D02*
G01*
X153419200Y-101875800D01*
X153419200Y-99224200D01*
X154580800Y-99224200D01*
X154580800Y-101875800D01*
X154580800Y-101875800D01*
G37*
G36*
X156780800Y-101875800D02*
G01*
X155619200Y-101875800D01*
X155619200Y-101124200D01*
X156780800Y-101124200D01*
X156780800Y-101875800D01*
X156780800Y-101875800D01*
G37*
G36*
X161588362Y-100023545D02*
G01*
X161676588Y-100032234D01*
X161846389Y-100083743D01*
X161846392Y-100083744D01*
X162002878Y-100167388D01*
X162140044Y-100279956D01*
X162252612Y-100417122D01*
X162336256Y-100573608D01*
X162336257Y-100573611D01*
X162387766Y-100743412D01*
X162405158Y-100920000D01*
X162387766Y-101096588D01*
X162342405Y-101246123D01*
X162336256Y-101266392D01*
X162252612Y-101422878D01*
X162140044Y-101560044D01*
X162002878Y-101672612D01*
X161846392Y-101756256D01*
X161846389Y-101756257D01*
X161676588Y-101807766D01*
X161588362Y-101816455D01*
X161544250Y-101820800D01*
X161455750Y-101820800D01*
X161411638Y-101816455D01*
X161323412Y-101807766D01*
X161153611Y-101756257D01*
X161153608Y-101756256D01*
X160997122Y-101672612D01*
X160859956Y-101560044D01*
X160747388Y-101422878D01*
X160663744Y-101266392D01*
X160657595Y-101246123D01*
X160612234Y-101096588D01*
X160594842Y-100920000D01*
X160612234Y-100743412D01*
X160663743Y-100573611D01*
X160663744Y-100573608D01*
X160747388Y-100417122D01*
X160859956Y-100279956D01*
X160997122Y-100167388D01*
X161153608Y-100083744D01*
X161153611Y-100083743D01*
X161323412Y-100032234D01*
X161411638Y-100023545D01*
X161455750Y-100019200D01*
X161544250Y-100019200D01*
X161588362Y-100023545D01*
X161588362Y-100023545D01*
G37*
G36*
X138660659Y-100270366D02*
G01*
X138660661Y-100270367D01*
X138660662Y-100270367D01*
X138760902Y-100311887D01*
X138851114Y-100372166D01*
X138927834Y-100448886D01*
X138988113Y-100539098D01*
X139002407Y-100573608D01*
X139029634Y-100639341D01*
X139050800Y-100745750D01*
X139050800Y-100854250D01*
X139037722Y-100920000D01*
X139029633Y-100960662D01*
X138988113Y-101060902D01*
X138927834Y-101151114D01*
X138851114Y-101227834D01*
X138760902Y-101288113D01*
X138660662Y-101329633D01*
X138660661Y-101329633D01*
X138660659Y-101329634D01*
X138554250Y-101350800D01*
X138445750Y-101350800D01*
X138339341Y-101329634D01*
X138339339Y-101329633D01*
X138339338Y-101329633D01*
X138239098Y-101288113D01*
X138148886Y-101227834D01*
X138072166Y-101151114D01*
X138011887Y-101060902D01*
X137970367Y-100960662D01*
X137962279Y-100920000D01*
X137949200Y-100854250D01*
X137949200Y-100745750D01*
X137970366Y-100639341D01*
X137997593Y-100573608D01*
X138011887Y-100539098D01*
X138072166Y-100448886D01*
X138148886Y-100372166D01*
X138239098Y-100311887D01*
X138339338Y-100270367D01*
X138339339Y-100270367D01*
X138339341Y-100270366D01*
X138445750Y-100249200D01*
X138554250Y-100249200D01*
X138660659Y-100270366D01*
X138660659Y-100270366D01*
G37*
G36*
X145284348Y-100266264D02*
G01*
X145323000Y-100277989D01*
X145358623Y-100297030D01*
X145389846Y-100322654D01*
X145415470Y-100353877D01*
X145434511Y-100389500D01*
X145446236Y-100428152D01*
X145450800Y-100474491D01*
X145450800Y-101125509D01*
X145446236Y-101171848D01*
X145434511Y-101210500D01*
X145415470Y-101246123D01*
X145389846Y-101277346D01*
X145358623Y-101302970D01*
X145323000Y-101322011D01*
X145284348Y-101333736D01*
X145238009Y-101338300D01*
X144161991Y-101338300D01*
X144115652Y-101333736D01*
X144077000Y-101322011D01*
X144041377Y-101302970D01*
X144010154Y-101277346D01*
X143984530Y-101246123D01*
X143965489Y-101210500D01*
X143953764Y-101171848D01*
X143949200Y-101125509D01*
X143949200Y-100474491D01*
X143953764Y-100428152D01*
X143965489Y-100389500D01*
X143984530Y-100353877D01*
X144010154Y-100322654D01*
X144041377Y-100297030D01*
X144077000Y-100277989D01*
X144115652Y-100266264D01*
X144161991Y-100261700D01*
X145238009Y-100261700D01*
X145284348Y-100266264D01*
X145284348Y-100266264D01*
G37*
G36*
X152925800Y-100650800D02*
G01*
X151274200Y-100650800D01*
X151274200Y-99949200D01*
X152925800Y-99949200D01*
X152925800Y-100650800D01*
X152925800Y-100650800D01*
G37*
G36*
X147525800Y-100650800D02*
G01*
X145874200Y-100650800D01*
X145874200Y-99949200D01*
X147525800Y-99949200D01*
X147525800Y-100650800D01*
X147525800Y-100650800D01*
G37*
G36*
X156780800Y-99975800D02*
G01*
X155619200Y-99975800D01*
X155619200Y-99224200D01*
X156780800Y-99224200D01*
X156780800Y-99975800D01*
X156780800Y-99975800D01*
G37*
G36*
X145284348Y-98391264D02*
G01*
X145323000Y-98402989D01*
X145358623Y-98422030D01*
X145389846Y-98447654D01*
X145415470Y-98478877D01*
X145434511Y-98514500D01*
X145446236Y-98553152D01*
X145450800Y-98599491D01*
X145450800Y-99250509D01*
X145446236Y-99296848D01*
X145434511Y-99335500D01*
X145415470Y-99371123D01*
X145389846Y-99402346D01*
X145358623Y-99427970D01*
X145323000Y-99447011D01*
X145284348Y-99458736D01*
X145238009Y-99463300D01*
X144161991Y-99463300D01*
X144115652Y-99458736D01*
X144077000Y-99447011D01*
X144041377Y-99427970D01*
X144010154Y-99402346D01*
X143984530Y-99371123D01*
X143965489Y-99335500D01*
X143953764Y-99296848D01*
X143949200Y-99250509D01*
X143949200Y-98599491D01*
X143953764Y-98553152D01*
X143965489Y-98514500D01*
X143984530Y-98478877D01*
X144010154Y-98447654D01*
X144041377Y-98422030D01*
X144077000Y-98402989D01*
X144115652Y-98391264D01*
X144161991Y-98386700D01*
X145238009Y-98386700D01*
X145284348Y-98391264D01*
X145284348Y-98391264D01*
G37*
G36*
X139868900Y-96170346D02*
G01*
X140081521Y-96212639D01*
X140381947Y-96337080D01*
X140652324Y-96517740D01*
X140882260Y-96747676D01*
X141062920Y-97018053D01*
X141187361Y-97318479D01*
X141250800Y-97637410D01*
X141250800Y-97962590D01*
X141187361Y-98281521D01*
X141062920Y-98581947D01*
X140882260Y-98852324D01*
X140652324Y-99082260D01*
X140381947Y-99262920D01*
X140081521Y-99387361D01*
X139927789Y-99417940D01*
X139762591Y-99450800D01*
X139437409Y-99450800D01*
X139272211Y-99417940D01*
X139118479Y-99387361D01*
X138818053Y-99262920D01*
X138547676Y-99082260D01*
X138317740Y-98852324D01*
X138137080Y-98581947D01*
X138012639Y-98281521D01*
X137949200Y-97962590D01*
X137949200Y-97637410D01*
X138012639Y-97318479D01*
X138137080Y-97018053D01*
X138317740Y-96747676D01*
X138547676Y-96517740D01*
X138818053Y-96337080D01*
X139118479Y-96212639D01*
X139331100Y-96170346D01*
X139437409Y-96149200D01*
X139762591Y-96149200D01*
X139868900Y-96170346D01*
X139868900Y-96170346D01*
G37*
G36*
X159868900Y-96170346D02*
G01*
X160081521Y-96212639D01*
X160381947Y-96337080D01*
X160652324Y-96517740D01*
X160882260Y-96747676D01*
X161062920Y-97018053D01*
X161187361Y-97318479D01*
X161250800Y-97637410D01*
X161250800Y-97962590D01*
X161187361Y-98281521D01*
X161062920Y-98581947D01*
X160882260Y-98852324D01*
X160652324Y-99082260D01*
X160381947Y-99262920D01*
X160081521Y-99387361D01*
X159927789Y-99417940D01*
X159762591Y-99450800D01*
X159437409Y-99450800D01*
X159272211Y-99417940D01*
X159118479Y-99387361D01*
X158818053Y-99262920D01*
X158547676Y-99082260D01*
X158317740Y-98852324D01*
X158137080Y-98581947D01*
X158012639Y-98281521D01*
X157949200Y-97962590D01*
X157949200Y-97637410D01*
X158012639Y-97318479D01*
X158137080Y-97018053D01*
X158317740Y-96747676D01*
X158547676Y-96517740D01*
X158818053Y-96337080D01*
X159118479Y-96212639D01*
X159331100Y-96170346D01*
X159437409Y-96149200D01*
X159762591Y-96149200D01*
X159868900Y-96170346D01*
X159868900Y-96170346D01*
G37*
G36*
X152925800Y-99380800D02*
G01*
X151274200Y-99380800D01*
X151274200Y-98679200D01*
X152925800Y-98679200D01*
X152925800Y-99380800D01*
X152925800Y-99380800D01*
G37*
G36*
X147525800Y-99380800D02*
G01*
X145874200Y-99380800D01*
X145874200Y-98679200D01*
X147525800Y-98679200D01*
X147525800Y-99380800D01*
X147525800Y-99380800D01*
G37*
G36*
X149652611Y-95569065D02*
G01*
X149852352Y-95608796D01*
X150134579Y-95725699D01*
X150388578Y-95895415D01*
X150604585Y-96111422D01*
X150774301Y-96365421D01*
X150891204Y-96647648D01*
X150911101Y-96747677D01*
X150942830Y-96907188D01*
X150950800Y-96947259D01*
X150950800Y-97252741D01*
X150891204Y-97552352D01*
X150774301Y-97834579D01*
X150604585Y-98088578D01*
X150388578Y-98304585D01*
X150134579Y-98474301D01*
X149852352Y-98591204D01*
X149652611Y-98630935D01*
X149552742Y-98650800D01*
X149247258Y-98650800D01*
X149147389Y-98630935D01*
X148947648Y-98591204D01*
X148665421Y-98474301D01*
X148411422Y-98304585D01*
X148195415Y-98088578D01*
X148025699Y-97834579D01*
X147908796Y-97552352D01*
X147898395Y-97500063D01*
X147891283Y-97476617D01*
X147879732Y-97455006D01*
X147864187Y-97436064D01*
X147845245Y-97420519D01*
X147823634Y-97408968D01*
X147800185Y-97401855D01*
X147775799Y-97399453D01*
X147751413Y-97401855D01*
X147727964Y-97408968D01*
X147706353Y-97420519D01*
X147687411Y-97436064D01*
X147671866Y-97455006D01*
X147660315Y-97476617D01*
X147653202Y-97500066D01*
X147650800Y-97524452D01*
X147650800Y-97750509D01*
X147646236Y-97796848D01*
X147634511Y-97835500D01*
X147615470Y-97871123D01*
X147589846Y-97902346D01*
X147558623Y-97927970D01*
X147523000Y-97947011D01*
X147484348Y-97958736D01*
X147438009Y-97963300D01*
X146361991Y-97963300D01*
X146315652Y-97958736D01*
X146277000Y-97947011D01*
X146241377Y-97927970D01*
X146210154Y-97902346D01*
X146184530Y-97871123D01*
X146165489Y-97835500D01*
X146153764Y-97796848D01*
X146149200Y-97750509D01*
X146149200Y-97099491D01*
X146153764Y-97053152D01*
X146165489Y-97014500D01*
X146184530Y-96978877D01*
X146210154Y-96947654D01*
X146241377Y-96922030D01*
X146277000Y-96902989D01*
X146315652Y-96891264D01*
X146361991Y-96886700D01*
X147438009Y-96886700D01*
X147484348Y-96891264D01*
X147523000Y-96902989D01*
X147558623Y-96922030D01*
X147589846Y-96947654D01*
X147615470Y-96978878D01*
X147616546Y-96980890D01*
X147630161Y-97001264D01*
X147647488Y-97018591D01*
X147667863Y-97032204D01*
X147690502Y-97041581D01*
X147714535Y-97046360D01*
X147739039Y-97046360D01*
X147763073Y-97041579D01*
X147785711Y-97032201D01*
X147806085Y-97018586D01*
X147823412Y-97001259D01*
X147837025Y-96980884D01*
X147849381Y-96946349D01*
X147870284Y-96841264D01*
X147908796Y-96647648D01*
X148025699Y-96365421D01*
X148195415Y-96111422D01*
X148411422Y-95895415D01*
X148665421Y-95725699D01*
X148947648Y-95608796D01*
X149147389Y-95569065D01*
X149247258Y-95549200D01*
X149552742Y-95549200D01*
X149652611Y-95569065D01*
X149652611Y-95569065D01*
G37*
G36*
X154271848Y-97003764D02*
G01*
X154310500Y-97015489D01*
X154346123Y-97034530D01*
X154377346Y-97060154D01*
X154402970Y-97091377D01*
X154422011Y-97127000D01*
X154433736Y-97165652D01*
X154438300Y-97211991D01*
X154438300Y-98288009D01*
X154433736Y-98334348D01*
X154422011Y-98373000D01*
X154402970Y-98408623D01*
X154377346Y-98439846D01*
X154346123Y-98465470D01*
X154310500Y-98484511D01*
X154271848Y-98496236D01*
X154225509Y-98500800D01*
X153574491Y-98500800D01*
X153528152Y-98496236D01*
X153489500Y-98484511D01*
X153453877Y-98465470D01*
X153422654Y-98439846D01*
X153397030Y-98408623D01*
X153377989Y-98373000D01*
X153366264Y-98334348D01*
X153361700Y-98288009D01*
X153361700Y-97211991D01*
X153366264Y-97165652D01*
X153377989Y-97127000D01*
X153397030Y-97091377D01*
X153422654Y-97060154D01*
X153453877Y-97034530D01*
X153489500Y-97015489D01*
X153528152Y-97003764D01*
X153574491Y-96999200D01*
X154225509Y-96999200D01*
X154271848Y-97003764D01*
X154271848Y-97003764D01*
G37*
G36*
X156146848Y-97003764D02*
G01*
X156185500Y-97015489D01*
X156221123Y-97034530D01*
X156252346Y-97060154D01*
X156277970Y-97091377D01*
X156297011Y-97127000D01*
X156308736Y-97165652D01*
X156313300Y-97211991D01*
X156313300Y-98288009D01*
X156308736Y-98334348D01*
X156297011Y-98373000D01*
X156277970Y-98408623D01*
X156252346Y-98439846D01*
X156221123Y-98465470D01*
X156185500Y-98484511D01*
X156146848Y-98496236D01*
X156100509Y-98500800D01*
X155449491Y-98500800D01*
X155403152Y-98496236D01*
X155364500Y-98484511D01*
X155328877Y-98465470D01*
X155297654Y-98439846D01*
X155272030Y-98408623D01*
X155252989Y-98373000D01*
X155241264Y-98334348D01*
X155236700Y-98288009D01*
X155236700Y-97211991D01*
X155241264Y-97165652D01*
X155252989Y-97127000D01*
X155272030Y-97091377D01*
X155297654Y-97060154D01*
X155328877Y-97034530D01*
X155364500Y-97015489D01*
X155403152Y-97003764D01*
X155449491Y-96999200D01*
X156100509Y-96999200D01*
X156146848Y-97003764D01*
X156146848Y-97003764D01*
G37*
G36*
X145284348Y-96841264D02*
G01*
X145323000Y-96852989D01*
X145358623Y-96872030D01*
X145389846Y-96897654D01*
X145415470Y-96928877D01*
X145434511Y-96964500D01*
X145446236Y-97003152D01*
X145450800Y-97049491D01*
X145450800Y-97700509D01*
X145446236Y-97746848D01*
X145434511Y-97785500D01*
X145415470Y-97821123D01*
X145389846Y-97852346D01*
X145358623Y-97877970D01*
X145323000Y-97897011D01*
X145284348Y-97908736D01*
X145238009Y-97913300D01*
X144161991Y-97913300D01*
X144115652Y-97908736D01*
X144077000Y-97897011D01*
X144041377Y-97877970D01*
X144010154Y-97852346D01*
X143984530Y-97821123D01*
X143965489Y-97785500D01*
X143953764Y-97746848D01*
X143949200Y-97700509D01*
X143949200Y-97049491D01*
X143953764Y-97003152D01*
X143965489Y-96964500D01*
X143984530Y-96928877D01*
X144010154Y-96897654D01*
X144041377Y-96872030D01*
X144077000Y-96852989D01*
X144115652Y-96841264D01*
X144161991Y-96836700D01*
X145238009Y-96836700D01*
X145284348Y-96841264D01*
X145284348Y-96841264D01*
G37*
G36*
X153971848Y-95053764D02*
G01*
X154010500Y-95065489D01*
X154046123Y-95084530D01*
X154077346Y-95110154D01*
X154102970Y-95141377D01*
X154122011Y-95177000D01*
X154133736Y-95215652D01*
X154138300Y-95261991D01*
X154138300Y-96338009D01*
X154133736Y-96384348D01*
X154122011Y-96423000D01*
X154102970Y-96458623D01*
X154077346Y-96489846D01*
X154046123Y-96515470D01*
X154010500Y-96534511D01*
X153971848Y-96546236D01*
X153925509Y-96550800D01*
X153274491Y-96550800D01*
X153228152Y-96546236D01*
X153189500Y-96534511D01*
X153153877Y-96515470D01*
X153122654Y-96489846D01*
X153097030Y-96458623D01*
X153077989Y-96423000D01*
X153066264Y-96384348D01*
X153061700Y-96338009D01*
X153061700Y-95261991D01*
X153066264Y-95215652D01*
X153077989Y-95177000D01*
X153097030Y-95141377D01*
X153122654Y-95110154D01*
X153153877Y-95084530D01*
X153189500Y-95065489D01*
X153228152Y-95053764D01*
X153274491Y-95049200D01*
X153925509Y-95049200D01*
X153971848Y-95053764D01*
X153971848Y-95053764D01*
G37*
G36*
X155846848Y-95053764D02*
G01*
X155885500Y-95065489D01*
X155921123Y-95084530D01*
X155952346Y-95110154D01*
X155977970Y-95141377D01*
X155997011Y-95177000D01*
X156008736Y-95215652D01*
X156013300Y-95261991D01*
X156013300Y-96338009D01*
X156008736Y-96384348D01*
X155997011Y-96423000D01*
X155977970Y-96458623D01*
X155952346Y-96489846D01*
X155921123Y-96515470D01*
X155885500Y-96534511D01*
X155846848Y-96546236D01*
X155800509Y-96550800D01*
X155149491Y-96550800D01*
X155103152Y-96546236D01*
X155064500Y-96534511D01*
X155028877Y-96515470D01*
X154997654Y-96489846D01*
X154972030Y-96458623D01*
X154952989Y-96423000D01*
X154941264Y-96384348D01*
X154936700Y-96338009D01*
X154936700Y-95261991D01*
X154941264Y-95215652D01*
X154952989Y-95177000D01*
X154972030Y-95141377D01*
X154997654Y-95110154D01*
X155028877Y-95084530D01*
X155064500Y-95065489D01*
X155103152Y-95053764D01*
X155149491Y-95049200D01*
X155800509Y-95049200D01*
X155846848Y-95053764D01*
X155846848Y-95053764D01*
G37*
G36*
X147484348Y-95016264D02*
G01*
X147523000Y-95027989D01*
X147558623Y-95047030D01*
X147589846Y-95072654D01*
X147615470Y-95103877D01*
X147634511Y-95139500D01*
X147646236Y-95178152D01*
X147650800Y-95224491D01*
X147650800Y-95875509D01*
X147646236Y-95921848D01*
X147634511Y-95960500D01*
X147615470Y-95996123D01*
X147589846Y-96027346D01*
X147558623Y-96052970D01*
X147523000Y-96072011D01*
X147484348Y-96083736D01*
X147438009Y-96088300D01*
X146361991Y-96088300D01*
X146315652Y-96083736D01*
X146277000Y-96072011D01*
X146241377Y-96052970D01*
X146210154Y-96027346D01*
X146184530Y-95996123D01*
X146165489Y-95960500D01*
X146153764Y-95921848D01*
X146149200Y-95875509D01*
X146149200Y-95224491D01*
X146153764Y-95178152D01*
X146165489Y-95139500D01*
X146184530Y-95103877D01*
X146210154Y-95072654D01*
X146241377Y-95047030D01*
X146277000Y-95027989D01*
X146315652Y-95016264D01*
X146361991Y-95011700D01*
X147438009Y-95011700D01*
X147484348Y-95016264D01*
X147484348Y-95016264D01*
G37*
G36*
X145284348Y-94966264D02*
G01*
X145323000Y-94977989D01*
X145358623Y-94997030D01*
X145389846Y-95022654D01*
X145415470Y-95053877D01*
X145434511Y-95089500D01*
X145446236Y-95128152D01*
X145450800Y-95174491D01*
X145450800Y-95825509D01*
X145446236Y-95871848D01*
X145434511Y-95910500D01*
X145415470Y-95946123D01*
X145389846Y-95977346D01*
X145358623Y-96002970D01*
X145323000Y-96022011D01*
X145284348Y-96033736D01*
X145238009Y-96038300D01*
X144161991Y-96038300D01*
X144115652Y-96033736D01*
X144077000Y-96022011D01*
X144041377Y-96002970D01*
X144010154Y-95977346D01*
X143984530Y-95946123D01*
X143965489Y-95910500D01*
X143953764Y-95871848D01*
X143949200Y-95825509D01*
X143949200Y-95174491D01*
X143953764Y-95128152D01*
X143965489Y-95089500D01*
X143984530Y-95053877D01*
X144010154Y-95022654D01*
X144041377Y-94997030D01*
X144077000Y-94977989D01*
X144115652Y-94966264D01*
X144161991Y-94961700D01*
X145238009Y-94961700D01*
X145284348Y-94966264D01*
X145284348Y-94966264D01*
G37*
M02*
