M48
; DRILL file {KiCad 5.1.0} date 2019-05-19T21:58:04 CEST
; FORMAT={-:-/ absolute / inch / decimal}
; #@! TF.CreationDate,2019-05-19T21:58:04+02:00
; #@! TF.GenerationSoftware,Kicad,Pcbnew,5.1.0
; #@! TF.FileFunction,Plated,1,2,PTH
FMAT,2
INCH
T1C0.0157
T2C0.0315
T3C0.0394
%
G90
G05
T1
X5.4183Y-4.1426
X5.5049Y-4.2067
X5.5079Y-4.1693
X5.563Y-4.1457
X5.5915Y-4.0246
X5.6067Y-3.9193
X5.6142Y-3.8228
X5.6407Y-4.2146
X5.6457Y-3.8366
X5.6496Y-3.9896
X5.6499Y-4.1187
X5.6654Y-4.2352
X5.7418Y-3.8642
X5.752Y-4.1388
X5.7617Y-4.0843
X5.7717Y-4.1142
X5.8076Y-4.2021
X5.8228Y-4.1181
X5.8258Y-3.897
X5.8573Y-3.9508
X5.9395Y-4.0294
X5.9722Y-3.7627
X6.0079Y-3.7441
X6.0079Y-3.811
X6.0945Y-4.0945
X6.1024Y-3.89
X6.185Y-3.7559
X6.2132Y-3.9665
X6.2165Y-4.0157
X6.224Y-3.937
X6.2646Y-4.0207
T2
X6.1063Y-4.2323
X6.185Y-4.2323
T3
X6.3583Y-3.9732
X6.3583Y-4.0732
X6.3583Y-4.1732
T3
G00X5.8819Y-3.8425
M15
G01X5.8819Y-3.8031
M16
G05
G00X5.8819Y-4.1417
M15
G01X5.8819Y-4.1024
M16
G05
T0
M30
